<svg xmlns="http://www.w3.org/2000/svg" width="512" height="512" viewBox="0 0 512 512">
<g>
<path d="M 437.09 509.67 L 432.69 512.00 L 192.35 512.00 L 190.17 509.69 C187.37,506.70 187.34,501.91 190.10,499.40 C191.87,497.80 194.27,497.42 205.34,497.00 L 218.48 496.50 L 220.69 475.00 C221.91,463.17 225.60,427.64 228.89,396.02 L 234.87 338.55 L 232.71 334.69 C230.61,330.96 230.41,330.86 226.36,331.47 C223.68,331.87 220.97,331.59 218.83,330.69 C217.00,329.92 207.16,322.33 196.96,313.83 C186.76,305.33 177.92,298.07 177.31,297.69 C176.19,297.00 119.02,318.83 109.00,323.78 C101.53,327.48 91.30,337.98 86.81,346.59 C79.24,361.06 79.60,357.17 79.23,428.70 C78.91,492.29 78.92,492.92 80.95,494.95 C82.89,496.89 84.17,497.00 104.00,497.00 L 125.00 497.00 L 125.00 363.11 L 127.22 361.56 C130.41,359.33 135.32,359.59 137.60,362.10 C139.42,364.12 139.51,366.92 139.77,430.60 L 140.04 497.00 L 151.57 497.00 C162.61,497.00 163.20,497.11 165.66,499.57 C167.73,501.64 168.10,502.75 167.61,505.32 C167.27,507.07 166.05,509.29 164.89,510.25 C162.86,511.93 163.35,512.00 177.56,512.00 L 0.00 512.00 L 80.50 512.00 L 76.23 509.88 C70.49,507.04 66.30,501.72 64.95,495.56 C64.17,492.04 63.96,471.21 64.23,427.00 C64.67,356.01 64.46,358.27 72.05,342.50 C76.73,332.76 82.90,324.82 91.05,318.04 C100.48,310.19 95.67,312.25 199.00,271.97 L 208.50 268.26 L 209.08 248.69 L 205.29 245.64 C196.65,238.69 187.93,227.56 183.85,218.26 C181.10,212.00 178.02,202.04 178.01,199.39 C178.00,197.51 177.28,197.22 171.49,196.75 C155.33,195.45 141.98,183.09 138.93,166.58 C137.19,157.16 140.19,145.71 146.30,138.42 L 149.59 134.50 L 148.26 111.00 C147.53,98.07 147.08,82.55 147.26,76.50 C147.63,64.22 149.09,60.11 155.16,54.31 C158.27,51.34 168.13,46.03 170.58,46.01 C172.39,45.99 175.63,41.80 178.92,35.22 C180.73,31.60 185.07,25.78 189.19,21.44 C195.02,15.30 197.99,13.11 205.41,9.46 C215.35,4.59 223.72,2.15 234.50,1.01 C238.35,0.61 187.16,0.21 120.75,0.14 L 0.00 0.00 L 512.00 0.00 L 383.75 0.14 C313.21,0.22 259.35,0.62 264.05,1.04 C274.26,1.95 286.22,4.11 302.50,7.97 C309.10,9.53 316.98,11.08 320.00,11.42 C327.23,12.22 336.33,10.63 342.34,7.51 C348.16,4.49 355.37,4.17 358.76,6.79 C361.69,9.04 366.33,20.50 368.63,31.13 C371.26,43.33 371.03,63.48 368.11,75.96 C366.55,82.66 365.47,92.52 364.43,109.79 L 362.96 134.16 L 366.00 138.00 C371.82,145.34 373.50,150.51 373.50,161.00 C373.50,169.48 373.19,171.14 370.57,176.46 C364.94,187.93 353.75,195.77 341.62,196.74 L 335.22 197.26 L 333.63 203.88 C332.76,207.52 329.69,215.20 326.82,220.93 C322.46,229.65 320.15,232.85 312.80,240.37 L 304.00 249.37 L 304.00 268.60 L 307.75 269.93 C311.53,271.27 322.60,275.54 375.50,296.04 C391.45,302.22 407.05,308.55 410.16,310.11 C426.90,318.48 440.71,336.72 445.98,357.41 C447.72,364.24 448.00,368.54 448.00,388.85 C448.00,411.62 447.93,412.44 445.83,414.69 C442.94,417.75 438.60,417.70 435.45,414.55 L 433.00 412.09 L 432.99 389.80 C432.97,364.58 432.13,359.18 426.50,348.01 C422.01,339.08 411.92,328.30 404.21,324.19 C397.03,320.36 339.53,298.00 336.87,298.00 C335.81,298.00 326.74,304.85 316.72,313.22 C295.39,331.05 293.30,332.32 286.89,331.47 C282.38,330.86 282.24,330.93 280.03,334.68 L 277.77 338.50 L 285.91 417.00 C290.39,460.17 294.04,495.84 294.03,496.25 C294.01,496.66 311.77,497.00 333.50,497.00 L 373.00 497.00 L 373.00 364.63 L 375.17 362.31 C378.03,359.27 383.19,359.21 385.96,362.19 C387.97,364.35 388.00,365.34 388.00,430.69 L 388.00 497.00 L 408.67 497.00 C426.50,497.00 429.59,496.77 431.17,495.35 C432.85,493.82 433.00,491.61 433.00,467.80 L 433.00 441.91 L 435.45 439.45 C438.47,436.44 441.87,436.32 445.41,439.11 L 448.09 441.21 L 447.79 470.02 L 447.50 498.83 L 444.50 503.09 C442.85,505.43 439.52,508.39 437.09,509.67 ZM 243.50 247.59 C252.04,249.56 267.71,248.82 276.00,246.04 C295.51,239.51 310.36,224.82 317.44,205.04 L 320.50 196.50 L 320.50 110.84 L 317.23 107.92 C313.48,104.57 311.86,104.42 301.82,106.55 C275.63,112.09 241.75,112.22 213.25,106.89 C200.72,104.54 198.52,104.75 194.61,108.66 L 191.90 111.37 L 192.20 155.43 L 192.50 199.50 L 195.30 206.50 C203.87,227.94 220.74,242.32 243.50,247.59 ZM 163.45 115.34 C164.18,125.78 164.28,126.16 166.35,125.60 C167.53,125.29 170.12,125.02 172.10,125.01 L 175.70 125.00 L 176.32 117.07 C177.34,103.75 183.23,95.15 193.79,91.55 C199.66,89.56 202.17,89.61 215.50,91.99 C234.52,95.39 254.14,96.50 271.35,95.15 C279.68,94.50 291.45,93.08 297.50,91.99 C311.59,89.47 314.41,89.51 320.50,92.35 C330.47,97.01 336.00,106.57 336.00,119.18 L 336.00 125.00 L 340.42 125.00 C342.85,125.00 345.52,125.26 346.36,125.58 C348.32,126.34 348.60,124.38 349.88,101.00 C350.56,88.38 351.58,79.64 353.07,73.50 C355.63,62.99 356.13,44.81 354.10,36.00 C352.88,30.68 350.02,21.00 349.67,21.00 C349.58,21.00 347.12,21.90 344.22,23.01 C331.48,27.85 319.57,27.60 297.00,22.03 C275.48,16.71 266.68,15.52 249.00,15.54 C236.46,15.56 230.94,15.98 226.00,17.31 C208.86,21.94 198.41,30.11 190.45,45.10 C187.81,50.07 184.58,54.97 183.28,55.99 C181.98,57.02 177.84,59.03 174.10,60.46 C170.35,61.89 166.21,64.22 164.89,65.62 C162.54,68.14 162.50,68.50 162.60,86.34 C162.65,96.33 163.03,109.38 163.45,115.34 ZM 245.98 289.48 C247.80,291.67 265.20,291.67 267.02,289.48 C267.71,288.64 272.94,284.09 278.64,279.36 L 289.00 270.76 L 289.00 264.38 C289.00,260.87 288.66,258.01 288.25,258.01 C287.84,258.02 283.92,259.17 279.54,260.57 C265.10,265.18 245.79,264.92 231.24,259.91 C228.19,258.86 225.31,258.00 224.84,258.00 C224.38,258.00 224.00,260.87 224.00,264.38 L 224.00 270.76 L 234.36 279.36 C240.06,284.09 245.29,288.64 245.98,289.48 ZM 253.62 480.12 C270.32,496.84 270.52,497.00 274.87,497.00 L 279.26 497.00 L 278.64 493.25 C278.30,491.19 278.02,487.95 278.01,486.06 C278.00,482.93 276.25,480.86 258.83,463.35 C248.29,452.76 239.33,444.29 238.94,444.54 C238.54,444.79 237.89,449.09 237.49,454.12 L 236.77 463.25 ZM 167.00 180.41 C168.93,181.24 171.68,181.94 173.12,181.96 C175.28,181.99 175.86,181.44 176.38,178.88 C177.33,174.10 177.09,142.69 176.08,141.10 C174.80,139.07 168.62,140.33 163.07,143.76 C156.87,147.59 153.52,153.69 153.61,161.00 C153.65,164.02 154.39,167.85 155.26,169.50 C157.40,173.59 162.77,178.58 167.00,180.41 ZM 336.67 181.33 C339.16,183.83 349.04,180.00 353.65,174.74 C362.66,164.49 359.60,147.98 347.66,142.42 C344.82,141.10 341.04,140.02 339.25,140.01 L 336.00 140.00 L 336.00 160.33 C336.00,171.52 336.30,180.97 336.67,181.33 ZM 215.91 310.21 C219.53,313.35 222.78,315.94 223.12,315.96 C223.96,316.01 234.02,300.64 233.94,299.44 C233.83,297.96 215.28,283.00 213.54,283.00 C211.43,283.00 192.98,290.10 193.07,290.88 C193.10,291.22 196.77,294.42 201.23,298.00 C205.68,301.58 212.29,307.07 215.91,310.21 ZM 283.47 307.78 C288.49,315.07 289.34,315.87 290.88,314.76 C295.94,311.09 319.00,291.64 319.00,291.04 C319.00,290.22 301.12,283.00 299.09,283.00 C297.89,283.00 292.64,287.01 281.15,296.71 L 277.79 299.54 ZM 257.20 440.70 C266.15,449.66 273.73,457.00 274.04,457.00 C274.35,457.00 274.12,452.27 273.52,446.48 L 272.43 435.96 L 258.03 421.53 C250.11,413.60 243.33,407.29 242.96,407.52 C242.59,407.75 241.98,411.64 241.61,416.17 L 240.92 424.40 ZM 243.25 323.99 L 246.50 328.96 L 265.50 328.96 L 268.82 323.89 C270.65,321.09 271.92,318.22 271.64,317.50 C271.36,316.79 269.49,313.90 267.48,311.10 L 263.81 306.00 L 248.07 306.00 L 244.04 311.95 C241.82,315.21 240.00,318.15 240.00,318.46 C240.00,318.77 241.46,321.26 243.25,323.99 ZM 257.09 399.59 C263.86,406.38 269.56,411.78 269.75,411.59 C269.93,411.40 269.57,406.13 268.94,399.87 L 267.79 388.50 L 257.72 378.30 C252.17,372.69 247.32,368.30 246.93,368.55 C246.53,368.79 245.89,373.09 245.49,378.11 L 244.77 387.24 ZM 256.22 355.73 C260.20,359.73 263.83,363.00 264.30,363.00 C264.77,363.00 264.93,361.76 264.64,360.25 C264.36,358.74 263.83,354.46 263.48,350.75 L 262.84 344.00 L 255.92 344.00 C249.43,344.00 249.00,344.14 249.00,346.23 C249.00,347.65 251.60,351.07 256.22,355.73 ZM 233.91 496.25 C233.96,496.66 237.48,497.00 241.72,497.00 L 249.45 497.00 L 242.51 490.01 C237.83,485.29 235.34,483.42 234.87,484.26 C234.29,485.31 233.61,493.73 233.91,496.25 Z" fill="rgb(3,2,2)"/>
<path d="M 253.62 480.12 L 236.77 463.25 L 237.49 454.12 C237.89,449.09 238.54,444.79 238.94,444.54 C239.33,444.29 248.29,452.76 258.83,463.35 C276.25,480.86 278.00,482.93 278.01,486.06 C278.02,487.95 278.30,491.19 278.64,493.25 L 279.26 497.00 L 274.87 497.00 C270.52,497.00 270.32,496.84 253.62,480.12 ZM 257.20 440.70 L 240.92 424.40 L 241.61 416.17 C241.98,411.64 242.59,407.75 242.96,407.52 C243.33,407.29 250.11,413.60 258.03,421.53 L 272.43 435.96 L 273.52 446.48 C274.12,452.27 274.35,457.00 274.04,457.00 C273.73,457.00 266.15,449.66 257.20,440.70 ZM 243.25 323.99 C241.46,321.26 240.00,318.77 240.00,318.46 C240.00,318.15 241.82,315.21 244.04,311.95 L 248.07 306.00 L 263.81 306.00 L 267.48 311.10 C269.49,313.90 271.36,316.79 271.64,317.50 C271.92,318.22 270.65,321.09 268.82,323.89 L 265.50 328.96 L 246.50 328.96 ZM 257.09 399.59 L 244.77 387.24 L 245.49 378.11 C245.89,373.09 246.53,368.79 246.93,368.55 C247.32,368.30 252.17,372.69 257.72,378.30 L 267.79 388.50 L 268.94 399.87 C269.57,406.13 269.93,411.40 269.75,411.59 C269.56,411.78 263.86,406.38 257.09,399.59 ZM 256.22 355.73 C251.60,351.07 249.00,347.65 249.00,346.23 C249.00,344.14 249.43,344.00 255.92,344.00 L 262.84 344.00 L 263.48 350.75 C263.83,354.46 264.36,358.74 264.64,360.25 C264.93,361.76 264.77,363.00 264.30,363.00 C263.83,363.00 260.20,359.73 256.22,355.73 ZM 233.91 496.25 C233.61,493.73 234.29,485.31 234.87,484.26 C235.34,483.42 237.83,485.29 242.51,490.01 L 249.45 497.00 L 241.72 497.00 C237.48,497.00 233.96,496.66 233.91,496.25 ZM 200.03 12.32 C201.03,11.67 202.01,11.09 202.96,10.59 C210.06,6.86 214.43,5.06 221.25,3.39 C216.00,4.79 210.95,6.75 205.41,9.46 C203.32,10.49 201.58,11.40 200.03,12.32 ZM 227.69 1.97 C230.43,1.41 232.15,1.02 229.64,0.75 C233.58,0.84 235.34,0.92 234.50,1.01 C232.13,1.26 229.87,1.58 227.69,1.97 ZM 265.20 0.88 C267.16,1.19 269.00,1.50 270.72,1.78 C268.41,1.48 266.19,1.23 264.05,1.04 C263.42,0.99 263.84,0.93 265.20,0.88 ZM 188.58 22.09 C184.65,26.35 180.64,31.78 178.92,35.22 C181.00,31.05 184.53,26.36 188.58,22.09 ZM 293.79 5.97 C296.61,6.57 299.30,7.18 302.23,7.88 C308.98,9.49 316.98,11.08 320.00,11.42 C316.98,11.08 309.10,9.53 302.50,7.97 C299.45,7.24 296.55,6.58 293.79,5.97 ZM 374.85 0.15 C377.79,0.15 380.75,0.14 383.75,0.14 C380.76,0.14 377.79,0.15 374.85,0.15 Z" fill="rgb(82,74,136)"/>
<path d="M 163.45 115.34 C163.03,109.38 162.65,96.33 162.60,86.34 C162.50,68.50 162.54,68.14 164.89,65.62 C166.21,64.22 170.35,61.89 174.10,60.46 C177.84,59.03 181.98,57.02 183.28,55.99 C184.58,54.97 187.81,50.07 190.45,45.10 C198.41,30.11 208.86,21.94 226.00,17.31 C230.94,15.98 236.46,15.56 249.00,15.54 C266.68,15.52 275.48,16.71 297.00,22.03 C319.57,27.60 331.48,27.85 344.22,23.01 C347.12,21.90 349.58,21.00 349.67,21.00 C350.02,21.00 352.88,30.68 354.10,36.00 C356.13,44.81 355.63,62.99 353.07,73.50 C351.58,79.64 350.56,88.38 349.88,101.00 C348.60,124.38 348.32,126.34 346.36,125.58 C345.52,125.26 342.85,125.00 340.42,125.00 L 336.00 125.00 L 336.00 119.18 C336.00,106.57 330.47,97.01 320.50,92.35 C314.41,89.51 311.59,89.47 297.50,91.99 C291.45,93.08 279.68,94.50 271.35,95.15 C254.14,96.50 234.52,95.39 215.50,91.99 C202.17,89.61 199.66,89.56 193.79,91.55 C183.23,95.15 177.34,103.75 176.32,117.07 L 175.70 125.00 L 172.10 125.01 C170.12,125.02 167.53,125.29 166.35,125.60 C164.28,126.16 164.18,125.78 163.45,115.34 ZM 244.72 277.39 C244.97,277.64 245.01,278.67 244.81,279.67 C244.54,281.07 244.26,281.19 243.63,280.18 C243.17,279.46 242.13,279.12 241.31,279.44 C240.36,279.80 239.62,279.28 239.29,278.02 C239.01,276.92 238.30,276.31 237.73,276.67 C237.15,277.02 236.99,276.83 237.36,276.23 C237.97,275.24 243.43,276.10 244.72,277.39 ZM 247.56 267.47 C249.37,268.84 249.22,268.94 245.42,268.97 C241.19,269.00 239.67,268.34 240.59,266.86 C241.42,265.51 245.43,265.85 247.56,267.47 ZM 237.50 273.67 C236.95,274.14 236.27,274.80 236.00,275.13 C235.73,275.47 234.44,274.73 233.15,273.49 C230.56,271.01 231.58,269.42 235.06,270.52 C236.71,271.04 236.87,271.45 235.91,272.61 C234.93,273.79 235.05,273.94 236.61,273.43 C237.71,273.07 238.08,273.17 237.50,273.67 ZM 161.24 155.55 C160.64,158.68 158.00,158.78 158.00,155.67 C158.00,152.89 158.74,151.96 160.45,152.62 C161.18,152.90 161.51,154.12 161.24,155.55 ZM 343.00 175.50 C343.00,176.32 342.33,177.00 341.50,177.00 C340.67,177.00 340.00,176.32 340.00,175.50 C340.00,174.68 340.67,174.00 341.50,174.00 C342.33,174.00 343.00,174.68 343.00,175.50 ZM 342.00 145.00 C342.00,145.55 341.33,146.00 340.50,146.00 C339.67,146.00 339.00,145.55 339.00,145.00 C339.00,144.45 339.67,144.00 340.50,144.00 C341.33,144.00 342.00,144.45 342.00,145.00 Z" fill="rgb(247,194,106)"/>
<path d="M 243.50 247.59 C220.74,242.32 203.87,227.94 195.30,206.50 L 192.50 199.50 L 192.20 155.43 L 191.90 111.37 L 194.61 108.66 C198.52,104.75 200.72,104.54 213.25,106.89 C241.75,112.22 275.63,112.09 301.82,106.55 C311.86,104.42 313.48,104.57 317.23,107.92 L 320.50 110.84 L 320.50 196.50 L 317.44 205.04 C310.36,224.82 295.51,239.51 276.00,246.04 C267.71,248.82 252.04,249.56 243.50,247.59 ZM 112.65 322.12 C112.32,322.51 112.20,323.08 112.40,323.60 C112.68,324.33 112.54,325.17 112.08,325.45 C111.10,326.05 106.36,335.57 104.72,340.23 C103.91,342.54 103.41,366.13 103.03,420.25 L 102.50 497.00 C84.10,496.99 82.84,496.84 80.95,494.95 C78.92,492.92 78.91,492.29 79.23,428.70 C79.60,357.17 79.24,361.06 86.81,346.59 C91.30,337.98 101.53,327.48 109.00,323.78 C109.88,323.35 111.12,322.78 112.65,322.12 ZM 245.98 289.48 C245.29,288.64 240.06,284.09 234.36,279.36 L 224.00 270.76 L 224.00 264.38 C224.00,260.87 224.38,258.00 224.84,258.00 C225.31,258.00 228.19,258.86 231.24,259.91 C245.79,264.92 265.10,265.18 279.54,260.57 C283.92,259.17 287.84,258.02 288.25,258.01 C288.66,258.01 289.00,260.87 289.00,264.38 L 289.00 270.76 L 278.64 279.36 C272.94,284.09 267.71,288.64 267.02,289.48 C265.20,291.67 247.80,291.67 245.98,289.48 ZM 167.00 180.41 C162.77,178.58 157.40,173.59 155.26,169.50 C154.39,167.85 153.65,164.02 153.61,161.00 C153.52,153.69 156.87,147.59 163.07,143.76 C168.62,140.33 174.80,139.07 176.08,141.10 C177.09,142.69 177.33,174.10 176.38,178.88 C175.86,181.44 175.28,181.99 173.12,181.96 C171.68,181.94 168.93,181.24 167.00,180.41 ZM 336.67 181.33 C336.30,180.97 336.00,171.52 336.00,160.33 L 336.00 140.00 L 339.25 140.01 C341.04,140.02 344.82,141.10 347.66,142.42 C359.60,147.98 362.66,164.49 353.65,174.74 C349.04,180.00 339.16,183.83 336.67,181.33 ZM 215.91 310.21 C212.29,307.07 205.68,301.58 201.23,298.00 C196.77,294.42 193.10,291.22 193.07,290.88 C192.98,290.10 211.43,283.00 213.54,283.00 C215.28,283.00 233.83,297.96 233.94,299.44 C234.02,300.64 223.96,316.01 223.12,315.96 C222.78,315.94 219.53,313.35 215.91,310.21 ZM 283.47 307.78 L 277.79 299.54 L 281.15 296.71 C292.64,287.01 297.89,283.00 299.09,283.00 C301.12,283.00 319.00,290.22 319.00,291.04 C319.00,291.64 295.94,311.09 290.88,314.76 C289.34,315.87 288.49,315.07 283.47,307.78 ZM 244.72 277.39 C243.43,276.10 237.97,275.24 237.36,276.23 C236.99,276.83 237.15,277.02 237.73,276.67 C238.30,276.31 239.01,276.92 239.29,278.02 C239.62,279.28 240.36,279.80 241.31,279.44 C242.13,279.12 243.17,279.46 243.63,280.18 C244.26,281.19 244.54,281.07 244.81,279.67 C245.01,278.67 244.97,277.64 244.72,277.39 ZM 247.56 267.47 C245.43,265.85 241.42,265.51 240.59,266.86 C239.67,268.34 241.19,269.00 245.42,268.97 C249.22,268.94 249.37,268.84 247.56,267.47 ZM 237.50 273.67 C238.08,273.17 237.71,273.07 236.61,273.43 C235.05,273.94 234.93,273.79 235.91,272.61 C236.87,271.45 236.71,271.04 235.06,270.52 C231.58,269.42 230.56,271.01 233.15,273.49 C234.44,274.73 235.73,275.47 236.00,275.13 C236.27,274.80 236.95,274.14 237.50,273.67 ZM 161.24 155.55 C161.51,154.12 161.18,152.90 160.45,152.62 C158.74,151.96 158.00,152.89 158.00,155.67 C158.00,158.78 160.64,158.68 161.24,155.55 ZM 343.00 175.50 C343.00,174.68 342.33,174.00 341.50,174.00 C340.67,174.00 340.00,174.68 340.00,175.50 C340.00,176.32 340.67,177.00 341.50,177.00 C342.33,177.00 343.00,176.32 343.00,175.50 ZM 342.00 145.00 C342.00,144.45 341.33,144.00 340.50,144.00 C339.67,144.00 339.00,144.45 339.00,145.00 C339.00,145.55 339.67,146.00 340.50,146.00 C341.33,146.00 342.00,145.55 342.00,145.00 ZM 135.68 312.79 C154.75,305.35 176.62,297.26 177.31,297.69 C176.73,297.34 155.63,305.08 135.68,312.79 ZM 265.95 0.85 C267.31,1.12 269.51,1.52 272.14,1.97 C271.66,1.91 271.19,1.84 270.72,1.78 C269.00,1.50 267.16,1.19 265.20,0.88 C265.43,0.87 265.68,0.86 265.95,0.85 ZM 226.54 2.18 C228.42,1.71 230.01,1.28 230.84,1.02 C231.04,1.27 229.62,1.57 227.69,1.97 C227.31,2.03 226.92,2.11 226.54,2.18 ZM 230.47 0.88 C229.10,0.78 225.19,0.68 219.20,0.59 C223.54,0.64 227.06,0.70 229.64,0.75 C230.00,0.79 230.28,0.83 230.47,0.88 ZM 200.03 12.32 C198.88,13.01 197.83,13.69 196.82,14.43 C197.85,13.68 198.92,12.98 200.10,12.28 C200.07,12.29 200.05,12.31 200.03,12.32 Z" fill="rgb(245,213,202)"/>
<path d="M 0.00 256.00 L 0.00 0.00 L 116.75 0.08 C180.96,0.12 232.38,0.53 231.00,0.97 C229.62,1.42 225.35,2.51 221.50,3.38 C217.65,4.26 210.41,6.99 205.41,9.45 C198.00,13.10 195.01,15.31 189.19,21.44 C185.07,25.78 180.73,31.60 178.92,35.22 C175.63,41.80 172.39,45.99 170.58,46.01 C168.13,46.03 158.27,51.34 155.16,54.31 C149.09,60.11 147.63,64.22 147.26,76.50 C147.08,82.55 147.53,98.07 148.26,111.00 L 149.59 134.50 L 146.30 138.42 C140.19,145.71 137.19,157.16 138.93,166.58 C141.98,183.09 155.33,195.45 171.49,196.75 C177.28,197.22 178.00,197.51 178.01,199.39 C178.02,202.04 181.10,212.00 183.85,218.26 C187.93,227.56 196.65,238.69 205.29,245.64 L 209.08 248.69 L 208.79 258.47 L 208.50 268.26 L 199.00 271.97 C95.67,312.25 100.48,310.19 91.05,318.04 C82.90,324.82 76.73,332.76 72.05,342.50 C64.46,358.27 64.67,356.01 64.23,427.00 C63.96,471.21 64.17,492.04 64.95,495.56 C66.30,501.72 70.49,507.04 76.23,509.88 L 80.50 512.00 L 40.25 512.00 L 0.00 512.00 L 0.00 256.00 ZM 164.89 510.25 C166.05,509.29 167.27,507.07 167.61,505.32 C168.10,502.75 167.73,501.64 165.66,499.57 C163.20,497.11 162.61,497.00 151.57,497.00 L 140.04 497.00 L 139.77 430.60 C139.51,366.92 139.42,364.12 137.60,362.10 C135.32,359.59 130.41,359.33 127.22,361.56 L 125.00 363.11 L 125.00 430.06 L 125.00 497.00 L 113.75 497.00 L 102.50 497.00 L 103.03 420.25 C103.41,366.13 103.91,342.54 104.72,340.23 C106.36,335.57 111.10,326.05 112.08,325.45 C112.54,325.17 112.68,324.33 112.40,323.60 C112.12,322.86 112.47,322.02 113.19,321.72 C134.84,312.80 176.50,297.19 177.31,297.69 C177.92,298.07 186.76,305.33 196.96,313.83 C207.16,322.33 217.00,329.92 218.83,330.69 C220.97,331.59 223.68,331.87 226.36,331.47 C230.41,330.86 230.61,330.96 232.71,334.69 L 234.87 338.55 L 228.89 396.02 C225.60,427.64 221.91,463.17 220.69,475.00 L 218.48 496.50 L 205.34 497.00 C194.27,497.42 191.87,497.80 190.10,499.40 C187.34,501.91 187.37,506.70 190.17,509.69 L 192.35 512.00 L 177.56 512.00 C163.35,512.00 162.86,511.93 164.89,510.25 ZM 437.09 509.67 C439.52,508.39 442.85,505.43 444.50,503.09 L 447.50 498.83 L 447.79 470.02 L 448.09 441.21 L 445.41 439.11 C441.87,436.32 438.47,436.44 435.45,439.45 L 433.00 441.91 L 433.00 467.80 C433.00,491.61 432.85,493.82 431.17,495.35 C429.59,496.77 426.50,497.00 408.67,497.00 L 388.00 497.00 L 388.00 430.69 C388.00,365.34 387.97,364.35 385.96,362.19 C383.19,359.21 378.03,359.27 375.17,362.31 L 373.00 364.63 L 373.00 430.81 L 373.00 497.00 L 333.50 497.00 C311.77,497.00 294.01,496.66 294.03,496.25 C294.04,495.84 290.39,460.17 285.91,417.00 L 277.77 338.50 L 280.03 334.68 C282.24,330.93 282.38,330.86 286.89,331.47 C293.30,332.32 295.39,331.05 316.72,313.22 C326.74,304.85 335.81,298.00 336.87,298.00 C339.53,298.00 397.03,320.36 404.21,324.19 C411.92,328.30 422.01,339.08 426.50,348.01 C432.13,359.18 432.97,364.58 432.99,389.80 L 433.00 412.09 L 435.45 414.55 C438.60,417.70 442.94,417.75 445.83,414.69 C447.93,412.44 448.00,411.62 448.00,388.85 C448.00,368.54 447.72,364.24 445.98,357.41 C440.71,336.72 426.90,318.48 410.16,310.11 C407.05,308.55 391.45,302.22 375.50,296.04 C322.60,275.54 311.53,271.27 307.75,269.93 L 304.00 268.60 L 304.00 258.99 L 304.00 249.37 L 312.80 240.37 C320.15,232.85 322.46,229.65 326.82,220.93 C329.69,215.20 332.76,207.52 333.63,203.88 L 335.22 197.26 L 341.62 196.74 C353.75,195.77 364.94,187.93 370.57,176.46 C373.19,171.14 373.50,169.48 373.50,161.00 C373.50,150.51 371.82,145.34 366.00,138.00 L 362.96 134.16 L 364.43 109.79 C365.47,92.52 366.55,82.66 368.11,75.96 C371.03,63.48 371.26,43.33 368.63,31.13 C366.33,20.50 361.69,9.04 358.76,6.79 C355.37,4.17 348.16,4.49 342.34,7.51 C336.33,10.63 327.23,12.22 320.00,11.42 C316.98,11.08 308.98,9.49 302.23,7.88 C295.48,6.27 284.46,4.04 277.73,2.92 C271.00,1.81 265.05,0.73 264.50,0.53 C263.95,0.32 319.41,0.12 387.75,0.08 L 512.00 0.00 L 512.00 256.00 L 512.00 512.00 L 472.34 512.00 L 432.69 512.00 L 437.09 509.67 Z" fill="rgb(254,252,252)"/>
</g>
</svg>