<?xml version="1.0" standalone="no"?>
<!DOCTYPE svg PUBLIC "-//W3C//DTD SVG 20010904//EN"
 "http://www.w3.org/TR/2001/REC-SVG-20010904/DTD/svg10.dtd">
<svg version="1.0" xmlns="http://www.w3.org/2000/svg"
 width="720.000000pt" height="207.000000pt" viewBox="0 0 720.000000 207.000000"
 preserveAspectRatio="xMidYMid meet">

<g transform="translate(0.000000,207.000000) scale(0.100000,-0.100000)"
fill="#000000" stroke="none">
<path d="M0 1035 l0 -1035 3600 0 3600 0 0 1035 0 1035 -3600 0 -3600 0 0
-1035z m1701 589 c193 -36 269 -111 269 -263 0 -102 0 -102 -183 -99 l-152 3
-3 42 c-5 72 -59 102 -167 94 -65 -6 -135 -64 -135 -112 0 -68 31 -87 231
-139 223 -59 291 -98 325 -185 25 -66 16 -192 -19 -268 -55 -121 -203 -225
-377 -264 -154 -34 -395 -17 -498 36 -53 28 -109 89 -127 140 -16 45 -20 167
-7 188 5 8 57 12 167 14 l159 2 2 -42 c4 -82 57 -123 158 -124 99 0 174 42
196 109 23 68 -32 118 -165 150 -117 28 -257 75 -295 99 -106 67 -137 181 -87
318 60 165 197 265 411 301 111 19 198 19 297 0z m-1011 -34 c0 -19 -7 -20
-175 -20 -168 0 -175 1 -175 20 0 19 7 20 175 20 168 0 175 -1 175 -20z m2460
8 c0 -7 -10 -59 -22 -115 l-23 -103 -286 0 -286 0 -22 -100 c-33 -157 -63
-140 240 -140 243 0 260 -1 255 -17 -6 -21 -46 -200 -46 -208 0 -3 -119 -5
-264 -5 l-263 0 -23 -107 c-12 -60 -25 -114 -27 -120 -4 -10 56 -13 282 -13
l287 0 -5 -22 c-2 -13 -13 -65 -23 -115 l-18 -93 -454 0 c-427 0 -453 1 -448
18 6 19 246 1139 246 1147 0 3 203 5 450 5 347 0 450 -3 450 -12z m685 -145
c44 -189 140 -589 157 -655 6 -26 13 -47 14 -45 1 1 39 171 83 377 44 206 85
399 91 428 l12 52 149 0 149 0 -5 -22 c-8 -35 -245 -1142 -245 -1145 0 -2
-103 -3 -229 -3 l-228 0 -25 108 c-14 59 -61 259 -104 444 -43 186 -79 336
-80 335 -2 -1 -37 -162 -78 -357 -42 -195 -84 -393 -94 -440 l-19 -85 -146 -3
c-81 -1 -147 1 -148 5 0 5 55 268 123 585 l123 578 231 0 232 0 37 -157z
m1674 -25 c61 -338 171 -933 177 -961 l6 -27 -187 0 c-140 0 -187 3 -190 13
-2 6 -9 58 -15 115 l-12 102 -237 0 -237 0 -64 -115 -64 -115 -164 0 c-90 0
-162 4 -160 8 2 5 162 268 357 585 l353 577 202 0 202 0 33 -182z m881 178 c0
-8 -240 -1130 -246 -1148 -5 -16 -22 -18 -171 -18 l-165 0 6 23 c3 12 58 265
121 562 64 297 119 550 122 563 5 22 7 22 169 22 90 0 164 -2 164 -4z m510
-16 c0 -19 -7 -20 -175 -20 -168 0 -175 1 -175 20 0 19 7 20 175 20 168 0 175
-1 175 -20z m-6212 -282 c3 -17 -10 -18 -172 -18 -170 0 -176 1 -176 20 0 20
5 20 172 18 155 -3 173 -5 176 -20z m6212 2 c0 -19 -7 -20 -175 -20 -139 0
-175 3 -175 13 0 8 3 17 7 20 3 4 82 7 175 7 161 0 168 -1 168 -20z m-2 -303
c-2 -1 -81 -1 -175 1 -142 2 -173 5 -173 17 0 12 31 15 173 17 160 3 172 2
175 -15 2 -10 2 -19 0 -20z m-6208 18 c0 -12 -30 -15 -175 -17 -161 -3 -175
-2 -175 15 0 15 15 17 175 17 147 0 175 -2 175 -15z m-2 -282 c-3 -16 -21 -18
-176 -21 -167 -2 -172 -2 -172 18 0 19 6 20 176 20 162 0 175 -1 172 -17z
m6212 -3 c0 -20 -5 -20 -172 -18 -155 3 -173 5 -176 21 -3 16 10 17 172 17
170 0 176 -1 176 -20z m-6210 -280 c0 -19 -7 -20 -175 -20 -168 0 -175 1 -175
20 0 19 7 20 175 20 168 0 175 -1 175 -20z m6210 0 c0 -19 -7 -20 -175 -20
-168 0 -175 1 -175 20 0 19 7 20 175 20 168 0 175 -1 175 -20z"/>
<path d="M5077 1139 l-127 -234 146 -3 c81 -1 149 0 152 3 6 6 -27 395 -37
439 -6 25 -19 5 -134 -205z"/>
</g>
</svg>
