<?xml version="1.0" encoding="UTF-8"?>
<svg version="1.1" xmlns="http://www.w3.org/2000/svg" width="720" height="207">
<path d="M0 0 C237.6 0 475.2 0 720 0 C720 68.31 720 136.62 720 207 C482.4 207 244.8 207 0 207 C0 138.69 0 70.38 0 0 Z " fill="#DA261D" transform="translate(0,0)"/>
<path d="M0 0 C15.51 0 31.02 0 47 0 C48.505625 6.3525 50.01125 12.705 51.5625 19.25 C54.86810651 33.1712949 58.20800538 47.08008321 61.75415039 60.94238281 C63.69777673 68.58923606 65.39005095 76.27625691 67 84 C67.33 84 67.66 84 68 84 C68.7712035 80.45841384 69.54188987 76.91671532 70.3125 73.375 C70.52583984 72.3953125 70.73917969 71.415625 70.95898438 70.40625 C73.85055993 57.11363402 76.6809728 43.80814477 79.5 30.5 C80.09356578 27.69787759 80.68734869 24.89580131 81.28125 22.09375 C81.66893555 20.26360352 81.66893555 20.26360352 82.06445312 18.39648438 C83.36964448 12.26290244 84.68606128 6.13171402 86 0 C95.57 0 105.14 0 115 0 C113.87593299 11.24067009 113.87593299 11.24067009 112.9765625 15.2734375 C112.66041992 16.71795288 112.66041992 16.71795288 112.33789062 18.19165039 C112.10263672 19.24215576 111.86738281 20.29266113 111.625 21.375 C111.08476028 23.839586 110.54581574 26.30445608 110.0078125 28.76953125 C109.78179352 29.80148872 109.78179352 29.80148872 109.5512085 30.85429382 C108.12562462 37.37943778 106.74394789 43.91362045 105.3671875 50.44921875 C105.13462753 51.55317993 104.90206757 52.65714111 104.66246033 53.79455566 C104.18347667 56.06889689 103.70454968 58.34325005 103.22567749 60.61761475 C99.26109203 79.43801663 95.23291174 98.23790474 91 117 C75.82 117 60.64 117 45 117 C43.535625 110.68875 42.07125 104.3775 40.5625 97.875 C39.41469487 92.94185177 38.26568973 88.00898949 37.11561584 83.07637024 C36.87910812 82.06197372 36.6426004 81.04757721 36.39892578 80.00244141 C36.16618958 79.00424377 35.93345337 78.00604614 35.69366455 76.9776001 C35.01974895 74.08477363 34.34729978 71.19161025 33.67529297 68.29833984 C32.64886594 63.88065525 31.61728381 59.46420504 30.58175659 55.04864502 C30.19515822 53.3965114 29.81031972 51.74396494 29.42727661 50.09100342 C28.89372031 47.79000722 28.35389896 45.49056782 27.8125 43.19140625 C27.58027992 42.1802198 27.58027992 42.1802198 27.34336853 41.14860535 C26.56309682 37.86541617 25.67984293 34.93741257 24 32 C21.44048667 42.35344121 18.9779926 52.69348953 17.0625 63.1875 C15.16655026 73.54768713 12.79693496 83.77935088 10.390625 94.03125 C9.02381845 99.85758356 7.75330029 105.69765496 6.54296875 111.55859375 C6 114 6 114 5 117 C-4.57 117 -14.14 117 -24 117 C-22.8749263 106.87433671 -22.8749263 106.87433671 -22.13964844 103.47192383 C-21.97549942 102.70196075 -21.8113504 101.93199768 -21.64222717 101.13870239 C-21.37846535 99.93502518 -21.37846535 99.93502518 -21.109375 98.70703125 C-20.92447006 97.84673309 -20.73956512 96.98643494 -20.54905701 96.10006714 C-19.95377493 93.33657217 -19.35201249 90.5745358 -18.75 87.8125 C-18.33735541 85.90281352 -17.92500301 83.99306389 -17.51293945 82.08325195 C-15.28129208 71.76409991 -12.99116727 61.46057297 -10.60473633 51.17602539 C-9.0408542 44.36406966 -7.72759966 37.51486051 -6.45458984 30.64331055 C-5.08324858 23.2844328 -3.4940221 15.9855473 -1.83203125 8.6875 C-1.18063344 5.80055385 -0.58041024 2.9020512 0 0 Z " fill="#FDFBFA" transform="translate(333,46)"/>
<path d="M0 0 C0.22026855 1.23709717 0.44053711 2.47419434 0.66748047 3.7487793 C1.7333518 9.72894473 2.8034279 15.70835365 3.875 21.6875 C4.07263947 22.79057495 4.27027893 23.8936499 4.47390747 25.03015137 C6.84411638 38.24054373 9.25475581 51.44225224 11.75390625 64.62890625 C11.97904907 65.81687302 12.20419189 67.00483978 12.43615723 68.22880554 C13.52636398 73.97225997 14.62226094 79.71458095 15.72412109 85.45581055 C16.12729552 87.56949548 16.53045387 89.68318348 16.93359375 91.796875 C17.20339806 93.18955345 17.20339806 93.18955345 17.47865295 94.61036682 C18.89686431 102.06407354 19.92317255 109.46220785 21 117 C8.79 117 -3.42 117 -16 117 C-18 108 -18 108 -19 94 C-34.84 94.33 -50.68 94.66 -67 95 C-70.96 102.26 -74.92 109.52 -79 117 C-89.89 117 -100.78 117 -112 117 C-110.65645936 113.64114841 -109.66514148 111.247773 -107.77734375 108.33984375 C-107.33036133 107.64366943 -106.88337891 106.94749512 -106.42285156 106.23022461 C-105.93268555 105.47362549 -105.44251953 104.71702637 -104.9375 103.9375 C-99.75757894 95.84087756 -94.72286365 87.66236144 -89.75 79.4375 C-84.1016648 70.10033614 -78.41947025 60.78617798 -72.6875 51.5 C-68.49401809 44.70545898 -64.31030318 37.90741071 -60.23681641 31.04003906 C-59.25484052 29.40373507 -58.2534334 27.77891822 -57.23193359 26.16699219 C-54.63822834 22.03649739 -52.62515608 18.16255181 -51.03515625 13.54296875 C-42.81535667 -7.40156677 -18.78752501 -1.58530974 0 0 Z " fill="#FDFBFA" transform="translate(548,46)"/>
<path d="M0 0 C3.54458955 3.12864282 5.80496372 6.55160992 7.296875 11.02734375 C7.39216323 13.35910289 7.42673688 15.69364349 7.421875 18.02734375 C7.42574219 19.88359375 7.42574219 19.88359375 7.4296875 21.77734375 C7.296875 25.02734375 7.296875 25.02734375 6.296875 28.02734375 C-4.263125 28.02734375 -14.823125 28.02734375 -25.703125 28.02734375 C-26.198125 24.56234375 -26.198125 24.56234375 -26.703125 21.02734375 C-29.00669131 17.95132406 -32.0715855 16.23785692 -35.703125 15.02734375 C-41.63286374 14.62532756 -46.43431375 15.1248349 -51.703125 18.02734375 C-54.8802971 20.88679864 -55.6073321 22.34481931 -56.203125 26.58984375 C-55.94923917 29.9633285 -55.94923917 29.9633285 -54.328125 32.21484375 C-47.80589271 36.71828985 -40.6002723 38.33454208 -32.953125 39.90234375 C-21.48991754 42.28066693 -8.96797291 45.58393808 -1.890625 55.58984375 C1.65653675 62.87085997 1.32838013 71.76153981 -0.5390625 79.484375 C-5.59575462 93.78904432 -14.50186135 101.63636124 -27.89453125 108.08203125 C-29.81571669 108.86013141 -31.70617662 109.47118429 -33.703125 110.02734375 C-34.65058594 110.29160156 -35.59804687 110.55585938 -36.57421875 110.828125 C-54.33347202 115.50628036 -77.14290137 116.64596988 -93.703125 107.02734375 C-100.08315044 102.51434126 -103.10013995 96.58841178 -104.703125 89.02734375 C-105.57560822 77.77231019 -105.57560822 77.77231019 -103.703125 74.02734375 C-93.143125 74.02734375 -82.583125 74.02734375 -71.703125 74.02734375 C-71.043125 77.32734375 -70.383125 80.62734375 -69.703125 84.02734375 C-69.0619157 87.09958302 -69.0619157 87.09958302 -66.91796875 87.9765625 C-57.26855767 91.10475923 -49.83832973 90.62331632 -40.703125 86.02734375 C-37.59137789 83.45934484 -36.12147245 81.60922167 -35.578125 77.58984375 C-35.38863281 76.47802734 -35.38863281 76.47802734 -35.1953125 75.34375 C-35.86037078 72.31006106 -37.43151092 70.97314507 -39.86181641 69.13208008 C-43.03988518 67.22532309 -46.37050785 66.43170792 -49.953125 65.58984375 C-51.55043974 65.17818857 -53.14677131 64.7627029 -54.7421875 64.34375 C-55.55848633 64.13121582 -56.37478516 63.91868164 -57.21582031 63.69970703 C-61.2935707 62.59741762 -65.31242305 61.33569351 -69.328125 60.02734375 C-70.0490332 59.80248291 -70.76994141 59.57762207 -71.51269531 59.34594727 C-79.45819021 56.72725225 -86.58270919 52.93046803 -90.60546875 45.3203125 C-93.55518982 38.64605884 -93.88694882 31.82779402 -91.71875 24.8671875 C-86.57740529 12.06143077 -79.13239683 3.16196289 -66.703125 -2.97265625 C-46.6253445 -11.25915564 -18.41432111 -13.43819676 0 0 Z " fill="#FDFBFA" transform="translate(189.703125,51.97265625)"/>
<path d="M0 0 C29.7 0 59.4 0 90 0 C89 9 89 9 86 23 C66.86 23 47.72 23 28 23 C27.01 28.28 26.02 33.56 25 39 C24.34 41.64 23.68 44.28 23 47 C40.16 47 57.32 47 75 47 C74 58 74 58 71 69 C53.51 69 36.02 69 18 69 C17.67 71.31 17.34 73.62 17 76 C16.53569107 78.77764918 16.01820925 81.54444165 15.5 84.3125 C15.36980469 85.02728516 15.23960937 85.74207031 15.10546875 86.47851562 C14.11977209 91.76045583 14.11977209 91.76045583 13 94 C31.81 94 50.62 94 70 94 C68.720689 101.675866 67.39204087 109.34377523 66 117 C36.3 117 6.6 117 -24 117 C-23.37959982 110.17559804 -22.80780683 104.23715611 -21.125 97.75 C-19.64297223 91.90488249 -18.38328923 86.03771965 -17.21516418 80.12132263 C-15.7964644 72.93955686 -14.3014792 65.77443735 -12.79516602 58.6105957 C-12.32821031 56.38730077 -11.86423983 54.16339788 -11.40039062 51.93945312 C-7.75510803 34.58966121 -3.84676109 17.31042489 0 0 Z " fill="#FEFBFB" transform="translate(225,46)"/>
<path d="M0 0 C10.89 0 21.78 0 33 0 C30.18830734 15.11284805 27.13459898 30.11412101 23.7460022 45.10458374 C20.28715186 60.42920369 17.13499421 75.81090942 14.05761719 91.21630859 C13.87598526 92.11839554 13.69435333 93.02048248 13.50721741 93.9499054 C13.17083716 95.62079566 12.83739775 97.29228247 12.50779724 98.96452332 C11.27071988 105.09416884 9.65673729 110.9252966 8 117 C-2.56 117 -13.12 117 -24 117 C-23.39350706 110.32857771 -22.82268418 104.24731761 -21.375 97.8125 C-21.20315186 97.02101563 -21.03130371 96.22953125 -20.85424805 95.4140625 C-20.24313154 92.60780293 -19.62182824 89.80390485 -19 87 C-18.08027777 82.82635117 -17.16282883 78.65220604 -16.24676514 74.47775269 C-15.95632574 73.1550186 -15.66551116 71.83236683 -15.37432861 70.50979614 C-13.4170342 61.61574215 -11.5106209 52.71216687 -9.65234375 43.796875 C-9.45288651 42.84014893 -9.25342926 41.88342285 -9.04792786 40.89770508 C-8.06401365 36.17288802 -7.08409646 31.44727379 -6.10864258 26.72070312 C-5.74433364 24.96483747 -5.37999573 23.20897783 -5.015625 21.453125 C-4.77687904 20.28750031 -4.77687904 20.28750031 -4.53330994 19.09832764 C-3.19673052 12.6719182 -1.5963696 6.38547841 0 0 Z " fill="#FDFDFC" transform="translate(606,46)"/>
<path d="M0 0 C2.35823464 3.53735196 2.46113069 5.62637267 2.8515625 9.8359375 C2.94719986 10.84873276 2.94719986 10.84873276 3.04476929 11.88198853 C3.17815321 13.31564404 3.3073293 14.74969633 3.43261719 16.18408203 C3.62135666 18.33350842 3.82513839 20.48108451 4.03125 22.62890625 C4.81349642 31.16373634 5 39.36308336 5 48 C-4.9 48 -14.8 48 -25 48 C-23.62518686 44.56296715 -22.26349888 41.43951177 -20.56640625 38.18359375 C-19.84759277 36.80312866 -19.84759277 36.80312866 -19.11425781 35.39477539 C-18.60217773 34.41887451 -18.09009766 33.44297363 -17.5625 32.4375 C-17.03624023 31.43130615 -16.50998047 30.4251123 -15.96777344 29.38842773 C-10.78354162 19.51594808 -5.42601969 9.74128982 0 0 Z " fill="#D7271E" transform="translate(520,69)"/>
<path d="M0 0 C0.66 0 1.32 0 2 0 C1.85962479 1.81293089 1.71255111 3.6253443 1.5625 5.4375 C1.44068359 6.95150391 1.44068359 6.95150391 1.31640625 8.49609375 C1 11 1 11 0 12 C0.06444806 13.96566596 0.13261002 15.93179832 0.2578125 17.89453125 C-0.09198246 20.75119007 -1.01313129 21.93029594 -3 24 C-5.47328186 24.50552368 -5.47328186 24.50552368 -8.44946289 24.51416016 C-10.12118309 24.53405502 -10.12118309 24.53405502 -11.82667542 24.55435181 C-13.02984909 24.54930634 -14.23302277 24.54426086 -15.47265625 24.5390625 C-16.70664658 24.55085541 -17.9406369 24.56264832 -19.21202087 24.57479858 C-22.49110048 24.60416947 -25.76969556 24.61755367 -29.04888916 24.62164307 C-33.67393954 24.62935359 -38.29879796 24.6576023 -42.9236908 24.69662476 C-45.38648819 24.71635747 -47.84939551 24.72557869 -50.31227112 24.72354126 C-51.97926308 24.73397964 -51.97926308 24.73397964 -53.67993164 24.74462891 C-55.15194786 24.74651718 -55.15194786 24.74651718 -56.65370178 24.7484436 C-59.19061969 24.77215464 -59.19061969 24.77215464 -61 27 C-61.27687772 29.30350846 -61.45009945 31.62013542 -61.5625 33.9375 C-61.90609756 40.71829268 -61.90609756 40.71829268 -63 44 C-62.41784225 44.01030746 -61.83568451 44.02061493 -61.23588562 44.03123474 C-55.18521866 44.13928566 -49.13470105 44.25388492 -43.08422852 44.37231445 C-40.82514567 44.4156678 -38.56602997 44.45734258 -36.30688477 44.49731445 C-33.06256196 44.55500713 -29.8184046 44.61870469 -26.57421875 44.68359375 C-25.56163498 44.70030624 -24.54905121 44.71701874 -23.50578308 44.73423767 C-22.09465996 44.7641555 -22.09465996 44.7641555 -20.6550293 44.79467773 C-19.82674118 44.81022202 -18.99845306 44.8257663 -18.14506531 44.84178162 C-16 45 -16 45 -13 46 C-13.33 46.99 -13.66 47.98 -14 49 C-14.33 48.34 -14.66 47.68 -15 47 C-32.16 47 -49.32 47 -67 47 C-65.53818986 38.96004422 -63.83749952 30.96249793 -62 23 C-42.86 23 -23.72 23 -4 23 C-3.67 20.03 -3.34 17.06 -3 14 C-2.51640193 11.47175931 -1.99847773 8.94970462 -1.4375 6.4375 C-1.16808594 5.21933594 -0.89867187 4.00117187 -0.62109375 2.74609375 C-0.41613281 1.83988281 -0.21117187 0.93367188 0 0 Z " fill="#C4332E" transform="translate(315,46)"/>
<path d="M0 0 C0.66 0 1.32 0 2 0 C1.23781321 8.53649208 -0.39689353 16.45009881 -2 25 C27.7 25 57.4 25 88 25 C88 22.69 88 20.38 88 18 C89 15.5625 89 15.5625 90 14 C90.05416188 15.60379341 90.09286638 17.20811406 90.125 18.8125 C90.14820313 19.70582031 90.17140625 20.59914062 90.1953125 21.51953125 C90 24 90 24 88 27 C85.08052539 27.2967413 82.37295802 27.39888331 79.45117188 27.37231445 C78.12419029 27.37779045 78.12419029 27.37779045 76.770401 27.38337708 C73.83632409 27.39150537 70.90279551 27.3778536 67.96875 27.36328125 C65.93615723 27.36276292 63.90356395 27.36327958 61.87097168 27.36479187 C57.6071018 27.36470204 53.34342059 27.35425153 49.07958984 27.33618164 C43.60478542 27.31349416 38.13025688 27.31294927 32.6554184 27.31969929 C28.45706719 27.32303539 24.25877928 27.31641596 20.06044006 27.30657005 C18.0413496 27.30271156 16.0222521 27.30157251 14.00315857 27.3031559 C11.18491114 27.30352536 8.36702192 27.29093981 5.54882812 27.2746582 C4.70824356 27.27713562 3.867659 27.27961304 3.00160217 27.28216553 C-2.77125983 27.22874017 -2.77125983 27.22874017 -5 25 C-5 24.01 -5 23.02 -5 22 C-4.34 22 -3.68 22 -3 22 C-3.01160156 21.24074219 -3.02320313 20.48148438 -3.03515625 19.69921875 C-3.04417969 18.70535156 -3.05320313 17.71148437 -3.0625 16.6875 C-3.07410156 15.70136719 -3.08570313 14.71523437 -3.09765625 13.69921875 C-3 11 -3 11 -2 8 C-1.34 8 -0.68 8 0 8 C0 5.36 0 2.72 0 0 Z " fill="#B93C34" transform="translate(203,138)"/>
<path d="M0 0 C0.85049423 0.00222061 1.70098846 0.00444122 2.57725525 0.00672913 C4.01863609 0.00684242 4.01863609 0.00684242 5.48913574 0.00695801 C7.05630592 0.01469994 7.05630592 0.01469994 8.65513611 0.02259827 C9.71913132 0.02401321 10.78312653 0.02542816 11.87936401 0.02688599 C15.29293069 0.03250388 18.70643286 0.04505941 22.11997986 0.05775452 C24.42792162 0.06276721 26.73586441 0.06733052 29.04380798 0.07142639 C34.71505412 0.08247912 40.38626238 0.09923465 46.05747986 0.12025452 C45.72747986 1.44025452 45.39747986 2.76025452 45.05747986 4.12025452 C45.05747986 3.13025452 45.05747986 2.14025452 45.05747986 1.12025452 C40.75641712 1.2405234 36.45549411 1.36484457 32.15464783 1.49256897 C30.69829816 1.53528984 29.24191822 1.5769935 27.7855072 1.61756897 C18.18415279 1.88592981 8.63398461 2.34856662 -0.94252014 3.12025452 C-1.60252014 5.76025452 -2.26252014 8.40025452 -2.94252014 11.12025452 C-3.60252014 11.12025452 -4.26252014 11.12025452 -4.94252014 11.12025452 C-5.23127014 11.84212952 -5.52002014 12.56400452 -5.81752014 13.30775452 C-6.18877014 14.23587952 -6.56002014 15.16400452 -6.94252014 16.12025452 C-7.23127014 16.96587952 -7.52002014 17.81150452 -7.81752014 18.68275452 C-9.12098159 21.50692099 -10.57892187 23.11477719 -12.94252014 25.12025452 C-15.77713269 26.06512537 -17.54037017 26.24892788 -20.47767639 26.25306702 C-21.37035217 26.25435608 -22.26302795 26.25564514 -23.18275452 26.25697327 C-24.11410217 26.25310608 -25.04544983 26.24923889 -26.00502014 26.24525452 C-26.90929749 26.2491217 -27.81357483 26.25298889 -28.74525452 26.25697327 C-34.86696334 26.24822172 -40.86440866 25.84287901 -46.94252014 25.12025452 C-46.94252014 24.46025452 -46.94252014 23.80025452 -46.94252014 23.12025452 C-36.05252014 23.12025452 -25.16252014 23.12025452 -13.94252014 23.12025452 C-13.28252014 21.47025452 -12.62252014 19.82025452 -11.94252014 18.12025452 C-11.25431465 16.71890034 -10.54471493 15.32784013 -9.81361389 13.94837952 C-9.22096741 12.82882874 -9.22096741 12.82882874 -8.61634827 11.68666077 C-8.20835999 10.9222467 -7.8003717 10.15783264 -7.38002014 9.37025452 C-6.96816467 8.5903717 -6.5563092 7.81048889 -6.13197327 7.00697327 C-2.49107217 0.15421342 -2.49107217 0.15421342 0 0 Z " fill="#CD403D" transform="translate(482.94252014160156,139.87974548339844)"/>
<path d="M0 0 C0.33 0 0.66 0 1 0 C1.9765625 6.0546875 1.9765625 6.0546875 2 8 C1.34 8.66 0.68 9.32 0 10 C0 11.98 0 13.96 0 16 C27.72 16 55.44 16 84 16 C84.99 13.36 85.98 10.72 87 8 C88 12 88 12 87 19 C57.3 19 27.6 19 -3 19 C-2.36220245 11.98422694 -1.85278053 6.5464912 0 0 Z " fill="#FEE3DE" transform="translate(204,144)"/>
<path d="M0 0 C12.21 0 24.42 0 37 0 C37 1.98 37 3.96 37 6 C24.79 6 12.58 6 0 6 C0 4.02 0 2.04 0 0 Z " fill="#CB4F49" transform="translate(655,73)"/>
<path d="M0 0 C1.47583955 0.0001591 2.95168467 0.00585225 4.42749023 0.01586914 C5.20293686 0.01728409 5.97838348 0.01869904 6.77732849 0.02015686 C9.26361893 0.02577194 11.74982059 0.03832693 14.23608398 0.05102539 C15.91772331 0.05603845 17.59936405 0.06060169 19.28100586 0.06469727 C23.41189965 0.07574626 27.54272674 0.09302094 31.67358398 0.11352539 C32.16858398 2.58852539 32.16858398 2.58852539 32.67358398 5.11352539 C29.5540427 6.67329603 26.24399015 6.23456665 22.82202148 6.21118164 C22.04798981 6.20976669 21.27395813 6.20835175 20.47647095 6.20689392 C18.00046957 6.20128942 15.5245581 6.18873622 13.04858398 6.17602539 C11.37150196 6.17101097 9.69441851 6.16644796 8.01733398 6.16235352 C3.90271592 6.15131854 -0.21183479 6.13405093 -4.32641602 6.11352539 C-4.36913702 4.44740634 -4.36705434 2.77969654 -4.32641602 1.11352539 C-3.32641602 0.11352539 -3.32641602 0.11352539 0 0 Z " fill="#CB5149" transform="translate(659.326416015625,128.886474609375)"/>
<path d="M0 0 C0.33 0 0.66 0 1 0 C1.18618167 5.11999591 0.79751127 9.45929825 -0.42578125 14.421875 C-1.37145825 18.66777176 -1.92590991 22.97233861 -2.53515625 27.27734375 C-3 30 -3 30 -4 32 C-4.23174479 34.30028162 -4.38109483 36.59880047 -4.5234375 38.90625 C-5 41 -5 41 -8 43 C-10.09364319 43.26069641 -10.09364319 43.26069641 -12.53149414 43.2746582 C-13.90290306 43.28895622 -13.90290306 43.28895622 -15.30201721 43.30354309 C-16.77867104 43.30217598 -16.77867104 43.30217598 -18.28515625 43.30078125 C-19.80320107 43.30720894 -19.80320107 43.30720894 -21.35191345 43.31376648 C-23.49119315 43.31951 -25.63049238 43.32000989 -27.76977539 43.31567383 C-31.053233 43.31250893 -34.33579414 43.33599024 -37.61914062 43.36132812 C-39.69531136 43.36360051 -41.77148453 43.3643049 -43.84765625 43.36328125 C-44.83411636 43.372491 -45.82057648 43.38170074 -46.83692932 43.39118958 C-47.74804977 43.38496078 -48.65917023 43.37873199 -49.59790039 43.37231445 C-50.80344322 43.37325859 -50.80344322 43.37325859 -52.03334045 43.3742218 C-52.6823381 43.25072861 -53.33133575 43.12723541 -54 43 C-56.67927341 38.98108988 -56.15601248 36.75838077 -56 32 C-55.67 32 -55.34 32 -55 32 C-54.67 34.97 -54.34 37.94 -54 41 C-38.82 41 -23.64 41 -8 41 C-7.34 37.04 -6.68 33.08 -6 29 C-5.51512273 26.49130038 -5.01513253 23.98541643 -4.4921875 21.484375 C-4.22792969 20.21464844 -3.96367187 18.94492188 -3.69140625 17.63671875 C-3.42199219 16.35410156 -3.15257812 15.07148438 -2.875 13.75 C-2.59483241 12.40759791 -2.31488329 11.06515021 -2.03515625 9.72265625 C-1.35890586 6.48131818 -0.68048208 3.24045182 0 0 Z " fill="#B83D35" transform="translate(432,122)"/>
<path d="M0 0 C0.79953138 3.28696233 1.09658936 4.71023192 0 8 C-4.94825616 7.90657935 -9.89601634 7.8005124 -14.84375 7.68261719 C-16.52759329 7.64428896 -18.21151955 7.60944288 -19.89550781 7.578125 C-22.31345306 7.53255713 -24.73082528 7.47455077 -27.1484375 7.4140625 C-27.9036972 7.40251129 -28.65895691 7.39096008 -29.43710327 7.37905884 C-34.77225659 7.22774341 -34.77225659 7.22774341 -37 5 C-25.45 5 -13.9 5 -2 5 C-2 3.68 -2 2.36 -2 1 C-13.55 1 -25.1 1 -37 1 C-37 1.99 -37 2.98 -37 4 C-37.66 4 -38.32 4 -39 4 C-39 2.68 -39 1.36 -39 0 C-33.19830211 -1.73166531 -27.0035587 -1.42005924 -21 -1.625 C-19.71609375 -1.6765625 -18.4321875 -1.728125 -17.109375 -1.78125 C-15.26085938 -1.84699219 -15.26085938 -1.84699219 -13.375 -1.9140625 C-12.24835937 -1.9548291 -11.12171875 -1.9955957 -9.9609375 -2.03759766 C-6.25140298 -1.9904944 -3.4974679 -1.16582263 0 0 Z " fill="#BD362F" transform="translate(71,158)"/>
<path d="M0 0 C0.85436142 -0.00315216 1.70872284 -0.00630432 2.588974 -0.009552 C3.51811111 -0.00752777 4.44724823 -0.00550354 5.40454102 -0.00341797 C6.35281265 -0.00437469 7.30108429 -0.00533142 8.27809143 -0.00631714 C10.28809678 -0.0069991 12.29810432 -0.0051437 14.30810547 -0.00097656 C17.39173316 0.00436558 20.4752148 -0.00091797 23.55883789 -0.00732422 C25.50740592 -0.00666332 27.45597386 -0.00538193 29.40454102 -0.00341797 C30.3316539 -0.0054422 31.25876678 -0.00746643 32.213974 -0.009552 C33.07148758 -0.00639984 33.92900116 -0.00324768 34.8125 0 C35.56893295 0.00079559 36.32536591 0.00159119 37.10472107 0.00241089 C38.97094727 0.12939453 38.97094727 0.12939453 40.97094727 1.12939453 C41.45320177 4.04375971 41.81557141 6.88214066 42.09594727 9.81689453 C42.18231445 10.620625 42.26868164 11.42435547 42.35766602 12.25244141 C42.80179609 16.56332296 43.06909991 20.78964544 42.97094727 25.12939453 C42.64094727 25.12939453 42.31094727 25.12939453 41.97094727 25.12939453 C41.46446587 22.42213087 40.96559627 19.71382329 40.47094727 17.00439453 C40.32786133 16.24384766 40.18477539 15.48330078 40.03735352 14.69970703 C39.83432617 13.57822266 39.83432617 13.57822266 39.62719727 12.43408203 C39.50151367 11.7532959 39.37583008 11.07250977 39.24633789 10.37109375 C38.91117421 7.64283762 38.97094727 4.87816084 38.97094727 2.12939453 C25.44094727 2.12939453 11.91094727 2.12939453 -2.02905273 2.12939453 C-2.68905273 3.77939453 -3.34905273 5.42939453 -4.02905273 7.12939453 C-5.34939695 9.43257166 -6.68886767 11.6910743 -8.09155273 13.94189453 C-8.45571289 14.539375 -8.81987305 15.13685547 -9.19506836 15.75244141 C-10.10911527 17.23079824 -11.06541248 18.68287521 -12.02905273 20.12939453 C-12.35905273 20.12939453 -12.68905273 20.12939453 -13.02905273 20.12939453 C-12.71655273 16.75439453 -12.71655273 16.75439453 -12.02905273 13.12939453 C-11.03905273 12.46939453 -10.04905273 11.80939453 -9.02905273 11.12939453 C-8.30522807 9.07014314 -8.30522807 9.07014314 -8.02905273 7.12939453 C-7.36905273 7.12939453 -6.70905273 7.12939453 -6.02905273 7.12939453 C-5.88467773 6.16001953 -5.74030273 5.19064453 -5.59155273 4.19189453 C-4.78488063 -0.19998693 -4.15296966 0.00437257 0 0 Z " fill="#CB3C38" transform="translate(509.029052734375,43.87060546875)"/>
<path d="M0 0 C2.40370085 4.8074017 -0.87381499 10.74446994 -2 16 C-21.14 16 -40.28 16 -60 16 C-60.33 16.66 -60.66 17.32 -61 18 C-61 16.35 -61 14.7 -61 13 C-42.19 13 -23.38 13 -4 13 C-4 12.01 -4 11.02 -4 10 C-3.34 10 -2.68 10 -2 10 C-2.04125 8.906875 -2.0825 7.81375 -2.125 6.6875 C-2 3 -2 3 0 0 Z " fill="#FDCEC8" transform="translate(313,53)"/>
<path d="M0 0 C11.55 0 23.1 0 35 0 C35 1.32 35 2.64 35 4 C23.45 4 11.9 4 0 4 C0 2.68 0 1.36 0 0 Z " fill="#FCD0C8" transform="translate(34,159)"/>
<path d="M0 0 C11.55 0 23.1 0 35 0 C35 1.32 35 2.64 35 4 C23.45 4 11.9 4 0 4 C0 2.68 0 1.36 0 0 Z " fill="#FCD0C8" transform="translate(655,159)"/>
<path d="M0 0 C11.55 0 23.1 0 35 0 C35 1.32 35 2.64 35 4 C23.45 4 11.9 4 0 4 C0 2.68 0 1.36 0 0 Z " fill="#F9D2CA" transform="translate(655,46)"/>
<path d="M0 0 C11.55 0 23.1 0 35 0 C35 1.32 35 2.64 35 4 C23.45 4 11.9 4 0 4 C0 2.68 0 1.36 0 0 Z " fill="#F9D2C8" transform="translate(34,46)"/>
<path d="M0 0 C2.31 0 4.62 0 7 0 C6.67 1.32 6.34 2.64 6 4 C7.84725052 4.69159401 7.84725052 4.69159401 10 5 C10.99 4.34 11.98 3.68 13 3 C13 3.99 13 4.98 13 6 C13.66 5.67 14.32 5.34 15 5 C14.9278125 5.55945312 14.855625 6.11890625 14.78125 6.6953125 C14.03209981 13.16713773 13.98146984 19.48476099 14.16015625 25.99609375 C14 29 14 29 12 32 C9.37537756 32.26697888 6.98934067 32.34832984 4.3671875 32.29296875 C3.23943405 32.28660149 3.23943405 32.28660149 2.08889771 32.28010559 C-0.31609685 32.2632917 -2.72025809 32.22563624 -5.125 32.1875 C-6.75389416 32.17245659 -8.38280144 32.15876758 -10.01171875 32.14648438 C-14.00813434 32.11337954 -18.00392582 32.06158009 -22 32 C-22 29.36 -22 26.72 -22 24 C-21.67 24 -21.34 24 -21 24 C-21 26.31 -21 28.62 -21 31 C-10.44 31 0.12 31 11 31 C11.061875 28.31875 11.12375 25.6375 11.1875 22.875 C11.21481201 22.04210449 11.24212402 21.20920898 11.27026367 20.35107422 C11.32475465 15.43985538 10.54742341 12.32484477 8 8 C7.67 7.01 7.34 6.02 7 5 C5.6846659 4.29848848 4.34882408 3.63474075 3 3 C1.25 1.375 1.25 1.375 0 0 Z " fill="#D24B45" transform="translate(185,49)"/>
<path d="M0 0 C-0.66 1.32 -1.32 2.64 -2 4 C-3.65 4 -5.3 4 -7 4 C-7.33 4.99 -7.66 5.98 -8 7 C-18.14131393 9.4527829 -27.59933565 10.43205811 -38.01098633 10.28125 C-40.22428936 10.24947178 -42.4368796 10.24019811 -44.65039062 10.234375 C-56.2944392 10.15947631 -56.2944392 10.15947631 -60 9 C-60 8.34 -60 7.68 -60 7 C-62.31 6.67 -64.62 6.34 -67 6 C-66.67 5.34 -66.34 4.68 -66 4 C-64.60587891 4.30744141 -64.60587891 4.30744141 -63.18359375 4.62109375 C-61.94738281 4.89050781 -60.71117188 5.15992188 -59.4375 5.4375 C-58.21933594 5.70433594 -57.00117187 5.97117188 -55.74609375 6.24609375 C-37.85715038 9.84626692 -20.8905146 7.61531441 -4.0625 0.8125 C-2 0 -2 0 0 0 Z " fill="#C73937" transform="translate(168,157)"/>
<path d="M0 0 C0.33 0 0.66 0 1 0 C1.05422947 1.4370809 1.09289723 2.87475462 1.125 4.3125 C1.14820313 5.11300781 1.17140625 5.91351563 1.1953125 6.73828125 C1 9 1 9 -1 12 C-1.45401453 14.12049727 -1.45401453 14.12049727 -1.6328125 16.44921875 C-1.70902832 17.21322998 -1.78524414 17.97724121 -1.86376953 18.7644043 C-1.94997559 19.72902588 -2.03618164 20.69364746 -2.125 21.6875 C-2.41375 24.760625 -2.7025 27.83375 -3 31 C6.57 30.67 16.14 30.34 26 30 C26 30.99 26 31.98 26 33 C15.44 33 4.88 33 -6 33 C-5.34017293 25.74190224 -4.56454685 19.04046081 -3 12 C-2.82210937 11.16855469 -2.64421875 10.33710938 -2.4609375 9.48046875 C-1.76138447 6.24895139 -1.04677222 3.14031666 0 0 Z " fill="#FFE6E0" transform="translate(588,130)"/>
<path d="M0 0 C10.89 0 21.78 0 33 0 C33.99 4.29 34.98 8.58 36 13 C37.98 13 39.96 13 42 13 C42.66 13.66 43.32 14.32 44 15 C46.44012949 15.24287489 46.44012949 15.24287489 49.125 15.125 C50.49011719 15.09792969 50.49011719 15.09792969 51.8828125 15.0703125 C52.58148438 15.04710937 53.28015625 15.02390625 54 15 C54 14.34 54 13.68 54 13 C57.3 12.67 60.6 12.34 64 12 C59.54801966 16.45198034 54.1590486 18.11775824 47.875 18.375 C41.62720475 17.77037465 37.06376191 15.84525458 33 11 C32 9 32 9 32 1 C21.44 1 10.88 1 0 1 C0 0.67 0 0.34 0 0 Z " fill="#CD5553" transform="translate(86,125)"/>
<path d="M0 0 C12.54 0 25.08 0 38 0 C38 1.65 38 3.3 38 5 C35.51149326 7.48850674 34.0378994 7.2461233 30.64086914 7.27789307 C29.91375732 7.2738446 29.18664551 7.26979614 28.4375 7.265625 C27.31686157 7.26849518 27.31686157 7.26849518 26.17358398 7.27142334 C24.59325829 7.27278498 23.01292142 7.26909 21.43261719 7.26074219 C19.00951078 7.250042 16.58714577 7.26063779 14.1640625 7.2734375 C12.63020669 7.2721159 11.09635135 7.2695535 9.5625 7.265625 C8.83538818 7.26967346 8.10827637 7.27372192 7.35913086 7.27789307 C2.22992361 7.22992361 2.22992361 7.22992361 0 5 C11.55 5 23.1 5 35 5 C35 3.68 35 2.36 35 1 C23.45 1 11.9 1 0 1 C0 0.67 0 0.34 0 0 Z " fill="#C6332E" transform="translate(34,45)"/>
<path d="M0 0 C3.86459977 0.82859091 7.78899319 0.90073103 11.73046875 1.05859375 C14.65197786 1.55428524 15.61467861 2.12257644 17.33203125 4.5 C17.33203125 5.16 17.33203125 5.82 17.33203125 6.5 C16.76097656 6.30664062 16.18992188 6.11328125 15.6015625 5.9140625 C-0.38943209 0.77863976 -16.2052184 0.09003826 -32.5234375 3.84375 C-35.66796875 4.5 -35.66796875 4.5 -39.66796875 4.5 C-39.66796875 3.51 -39.66796875 2.52 -39.66796875 1.5 C-36.76599361 0.04901243 -34.02158956 0.18794466 -30.79296875 0 C-26.15843896 -0.21785152 -26.15843896 -0.21785152 -21.609375 -1.01953125 C-14.6645307 -2.73827541 -6.83130363 -1.82506071 0 0 Z " fill="#C9322F" transform="translate(167.66796875,42.5)"/>
<path d="M0 0 C0.72680969 0.02644089 1.45361938 0.05288177 2.20245361 0.0801239 C4.51603511 0.16765684 6.82800575 0.27688015 9.140625 0.38671875 C10.71218249 0.45000186 12.28379776 0.5118671 13.85546875 0.57226562 C17.70138405 0.72315946 21.54600006 0.89350745 25.390625 1.07421875 C25.390625 1.73421875 25.390625 2.39421875 25.390625 3.07421875 C14.500625 3.07421875 3.610625 3.07421875 -7.609375 3.07421875 C-7.939375 6.04421875 -8.269375 9.01421875 -8.609375 12.07421875 C-9.09297307 14.60245944 -9.61089727 17.12451413 -10.171875 19.63671875 C-10.44128906 20.85488281 -10.71070313 22.07304688 -10.98828125 23.328125 C-11.29572266 24.68744141 -11.29572266 24.68744141 -11.609375 26.07421875 C-11.939375 26.07421875 -12.269375 26.07421875 -12.609375 26.07421875 C-12.609375 22.11421875 -12.609375 18.15421875 -12.609375 14.07421875 C-11.949375 14.07421875 -11.289375 14.07421875 -10.609375 14.07421875 C-10.72796875 13.31496094 -10.8465625 12.55570313 -10.96875 11.7734375 C-11.09765625 10.77957031 -11.2265625 9.78570312 -11.359375 8.76171875 C-11.49859375 7.77558594 -11.6378125 6.78945313 -11.78125 5.7734375 C-11.609375 3.07421875 -11.609375 3.07421875 -10.07421875 1.41015625 C-6.70328935 -0.4168768 -3.71779405 -0.19807481 0 0 Z " fill="#C93C38" transform="translate(613.609375,42.92578125)"/>
<path d="M0 0 C1.23322843 3.58348444 0.7721117 6.18697824 0.00390625 9.859375 C-0.3043811 11.36709473 -0.3043811 11.36709473 -0.61889648 12.90527344 C-0.88903564 14.1740332 -1.1591748 15.44279297 -1.4375 16.75 C-2.283125 20.7925 -3.12875 24.835 -4 29 C6.56 29 17.12 29 28 29 C26 31 26 31 23.06665039 31.24291992 C21.83938232 31.23881104 20.61211426 31.23470215 19.34765625 31.23046875 C18.69171982 31.23001053 18.03578339 31.22955231 17.35997009 31.2290802 C15.97213941 31.2260584 14.5843121 31.21817419 13.1965332 31.20581055 C11.07425892 31.18760089 8.95242224 31.18530058 6.83007812 31.18554688 C-3.55700291 31.1476657 -3.55700291 31.1476657 -7 30 C-7 28.68 -7 27.36 -7 26 C-6.34 26 -5.68 26 -5 26 C-4.94392578 24.64068359 -4.94392578 24.64068359 -4.88671875 23.25390625 C-4.49539131 16.00283903 -3.73411952 9.73128337 -1 3 C-0.67 2.01 -0.34 1.02 0 0 Z " fill="#B93A33" transform="translate(586,134)"/>
<path d="M0 0 C2.35823464 3.53735196 2.46113069 5.62637267 2.8515625 9.8359375 C2.94719986 10.84873276 2.94719986 10.84873276 3.04476929 11.88198853 C3.17815321 13.31564404 3.3073293 14.74969633 3.43261719 16.18408203 C3.62135666 18.33350842 3.82513839 20.48108451 4.03125 22.62890625 C4.81349642 31.16373634 5 39.36308336 5 48 C-4.9 48 -14.8 48 -25 48 C-24.34 46.35 -23.68 44.7 -23 43 C-22.67 43.66 -22.34 44.32 -22 45 C-22.33 45.66 -22.66 46.32 -23 47 C-14.09 47 -5.18 47 4 47 C3.67 44.03 3.34 41.06 3 38 C2.939951 35.97995161 2.91192052 33.95827883 2.9375 31.9375 C2.94652344 30.99777344 2.95554687 30.05804688 2.96484375 29.08984375 C2.97644531 28.40019531 2.98804688 27.71054688 3 27 C2.34 27 1.68 27 1 27 C1 19.74 1 12.48 1 5 C0.34 5 -0.32 5 -1 5 C-1 5.66 -1 6.32 -1 7 C-1.66 6.67 -2.32 6.34 -3 6 C-2.01 4.02 -1.02 2.04 0 0 Z " fill="#C03F3A" transform="translate(520,69)"/>
<path d="M0 0 C0.66 0 1.32 0 2 0 C1.85962479 1.81293089 1.71255111 3.6253443 1.5625 5.4375 C1.48128906 6.44683594 1.40007812 7.45617188 1.31640625 8.49609375 C1 11 1 11 0 12 C0.06444806 13.96566596 0.13261002 15.93179832 0.2578125 17.89453125 C-0.09191248 20.75061856 -1.0141819 21.9302652 -3 24 C-5.46655273 24.50552368 -5.46655273 24.50552368 -8.43359375 24.51416016 C-9.54484619 24.5274234 -10.65609863 24.54068665 -11.80102539 24.55435181 C-13.60108032 24.5467836 -13.60108032 24.5467836 -15.4375 24.5390625 C-16.66911865 24.55085541 -17.9007373 24.56264832 -19.16967773 24.57479858 C-22.44344238 24.60417121 -25.71672174 24.61755346 -28.99060059 24.62164307 C-33.60395794 24.62935021 -38.21712255 24.65764563 -42.83032227 24.69662476 C-45.28647708 24.71632685 -47.74274162 24.72558194 -50.19897461 24.72354126 C-51.31022705 24.73050018 -52.42147949 24.73745911 -53.56640625 24.74462891 C-54.54552979 24.74588776 -55.52465332 24.74714661 -56.53344727 24.7484436 C-59.25400056 24.83175457 -59.25400056 24.83175457 -62 27 C-62 25.68 -62 24.36 -62 23 C-42.86 23 -23.72 23 -4 23 C-3.67 20.03 -3.34 17.06 -3 14 C-2.51640193 11.47175931 -1.99847773 8.94970462 -1.4375 6.4375 C-1.16808594 5.21933594 -0.89867187 4.00117187 -0.62109375 2.74609375 C-0.41613281 1.83988281 -0.21117187 0.93367188 0 0 Z " fill="#B5342E" transform="translate(315,46)"/>
<path d="M0 0 C0.66 0 1.32 0 2 0 C2 0.66 2 1.32 2 2 C1.34 2 0.68 2 0 2 C0.020625 3.27875 0.04125 4.5575 0.0625 5.875 C0.05138698 9.3867147 -0.05494926 12.87230992 -0.3125 16.375 C-0.39951172 17.59316406 -0.39951172 17.59316406 -0.48828125 18.8359375 C-1.12175114 21.5148865 -1.8343062 22.31929365 -4 24 C-6.37284851 24.39872742 -6.37284851 24.39872742 -9.20581055 24.43237305 C-10.26668381 24.45216721 -11.32755707 24.47196136 -12.420578 24.49235535 C-14.13631767 24.50194023 -14.13631767 24.50194023 -15.88671875 24.51171875 C-17.64493706 24.53864555 -17.64493706 24.53864555 -19.43867493 24.56611633 C-23.18824651 24.62036654 -26.93768974 24.65416302 -30.6875 24.6875 C-33.22723146 24.72065999 -35.76694595 24.7551484 -38.30664062 24.79101562 C-44.53764532 24.87610154 -50.76866633 24.94438909 -57 25 C-57 24.34 -57 23.68 -57 23 C-31.755 22.505 -31.755 22.505 -6 22 C-4.35 15.07 -2.7 8.14 -1 1 C-0.67 0.67 -0.34 0.34 0 0 Z " fill="#D42A26" transform="translate(301,94)"/>
<path d="M0 0 C0.33 0 0.66 0 1 0 C1.66 6.27 2.32 12.54 3 19 C15.21 19 27.42 19 40 19 C39.67 19.66 39.34 20.32 39 21 C33.90967159 21.02468084 28.81937785 21.04285082 23.72900391 21.05493164 C21.99657586 21.05996682 20.26415208 21.06679532 18.53173828 21.07543945 C16.04458567 21.08754065 13.55748913 21.09323638 11.0703125 21.09765625 C10.29317902 21.10281754 9.51604553 21.10797882 8.71536255 21.11329651 C3.22774341 21.11387171 3.22774341 21.11387171 1 20 C1 19.34 1 18.68 1 18 C0.34 18 -0.32 18 -1 18 C-0.505 9.09 -0.505 9.09 0 0 Z " fill="#BA3B36" transform="translate(529,144)"/>
<path d="M0 0 C10.56 0 21.12 0 32 0 C32.66 3.3 33.32 6.6 34 10 C34.495 11.485 34.495 11.485 35 13 C37.09719872 14.02281518 37.09719872 14.02281518 39.5625 14.6875 C40.38878906 14.93886719 41.21507812 15.19023437 42.06640625 15.44921875 C42.70449219 15.63097656 43.34257812 15.81273437 44 16 C44 16.33 44 16.66 44 17 C41.69 17.33 39.38 17.66 37 18 C37 17.34 37 16.68 37 16 C36.01 15.67 35.02 15.34 34 15 C34 14.01 34 13.02 34 12 C33.34 12 32.68 12 32 12 C31 9 31 9 31 1 C21.43 1.33 11.86 1.66 2 2 C1.979375 4.413125 1.95875 6.82625 1.9375 9.3125 C1.928396 10.06829346 1.91929199 10.82408691 1.90991211 11.6027832 C1.89712034 14.6839493 2.01868399 17.05605196 3 20 C2.34 20.66 1.68 21.32 1 22 C-1.44067583 15.4406837 -1.41770071 8.94548862 -1 2 C-0.67 1.34 -0.34 0.68 0 0 Z " fill="#FEE9E2" transform="translate(86,126)"/>
<path d="M0 0 C1.71077315 3.28920181 2.73209739 6.3923127 3.625 10 C3.88539063 11.03125 4.14578125 12.0625 4.4140625 13.125 C5 16 5 16 5 20 C4.34 20 3.68 20 3 20 C3 19.01 3 18.02 3 17 C2.01 17 1.02 17 0 17 C-1.85961414 21.2505466 -2.93204565 25.49933525 -4 30 C-4.66 29.67 -5.32 29.34 -6 29 C-5.23746012 22.75067891 -3.86099489 16.69110404 -2.4375 10.5625 C-2.20353516 9.54478516 -1.96957031 8.52707031 -1.72851562 7.47851562 C-1.15490697 4.98507393 -0.57867103 2.49227078 0 0 Z " fill="#CD3832" transform="translate(357,74)"/>
<path d="M0 0 C0.66 0 1.32 0 2 0 C0.79310745 3.10343799 -0.50596946 6.01193893 -2 9 C-12.89 9 -23.78 9 -35 9 C-33 4 -33 4 -31 3 C-31.33 4.32 -31.66 5.64 -32 7 C-27.89459549 6.97725414 -23.79199441 6.90002066 -19.6875 6.8125 C-18.52025391 6.80669922 -17.35300781 6.80089844 -16.15039062 6.79492188 C-15.03212891 6.76591797 -13.91386719 6.73691406 -12.76171875 6.70703125 C-11.73006592 6.6913208 -10.69841309 6.67561035 -9.63549805 6.65942383 C-6.75645329 6.25517748 -6.75645329 6.25517748 -5.32739258 3.45581055 C-4.88935303 2.64539307 -4.45131348 1.83497559 -4 1 C-3.01 1 -2.02 1 -1 1 C-0.67 0.67 -0.34 0.34 0 0 Z " fill="#FCF0EF" transform="translate(471,154)"/>
<path d="M0 0 C11.55 0 23.1 0 35 0 C35 0.99 35 1.98 35 3 C23.45 3 11.9 3 0 3 C0 2.01 0 1.02 0 0 Z " fill="#FFF3EA" transform="translate(34,131)"/>
<path d="M0 0 C11.55 0 23.1 0 35 0 C35 0.99 35 1.98 35 3 C23.45 3 11.9 3 0 3 C0 2.01 0 1.02 0 0 Z " fill="#FEF5EC" transform="translate(34,103)"/>
<path d="M0 0 C11.55 0 23.1 0 35 0 C35 0.99 35 1.98 35 3 C23.45 3 11.9 3 0 3 C0 2.01 0 1.02 0 0 Z " fill="#FFEBE2" transform="translate(34,75)"/>
<path d="M0 0 C11.22 0 22.44 0 34 0 C34 0.99 34 1.98 34 3 C22.78 3 11.56 3 0 3 C0 2.01 0 1.02 0 0 Z " fill="#FFEEE6" transform="translate(656,131)"/>
<path d="M0 0 C11.22 0 22.44 0 34 0 C34 0.99 34 1.98 34 3 C22.78 3 11.56 3 0 3 C0 2.01 0 1.02 0 0 Z " fill="#FFF0E7" transform="translate(656,103)"/>
<path d="M0 0 C11.22 0 22.44 0 34 0 C34 0.99 34 1.98 34 3 C22.78 3 11.56 3 0 3 C0 2.01 0 1.02 0 0 Z " fill="#FFEDE7" transform="translate(656,75)"/>
<path d="M0 0 C2 1 2 1 3.0703125 3.94140625 C3.41835938 5.13636719 3.76640625 6.33132812 4.125 7.5625 C4.47820312 8.76003906 4.83140625 9.95757812 5.1953125 11.19140625 C5.46085937 12.11824219 5.72640625 13.04507813 6 14 C6.66 14 7.32 14 8 14 C8.33 12.68 8.66 11.36 9 10 C9.99 10 10.98 10 12 10 C10.98208077 17.10377673 9.90094901 24.07511433 8 31 C5.91122549 27.86683823 5.31884303 25.7301693 4.4921875 22.08984375 C4.22792969 20.93548828 3.96367187 19.78113281 3.69140625 18.59179688 C3.42199219 17.38587891 3.15257812 16.17996094 2.875 14.9375 C2.59785156 13.72771484 2.32070313 12.51792969 2.03515625 11.27148438 C0 2.30376385 0 2.30376385 0 0 Z " fill="#C63634" transform="translate(393,102)"/>
<path d="M0 0 C0.33 0 0.66 0 1 0 C0.33933198 9.79990899 -1.81190431 19.23357806 -3.875 28.8125 C-4.23093403 30.48753141 -4.58640586 32.1626611 -4.94140625 33.83789062 C-6.87118469 42.91347196 -8.87152013 51.96869929 -11 61 C-11.33 61 -11.66 61 -12 61 C-12 58.03 -12 55.06 -12 52 C-11.34 52 -10.68 52 -10 52 C-10 48.37 -10 44.74 -10 41 C-9.34 41 -8.68 41 -8 41 C-7.3095555 35.67371389 -6.73879216 30.35551545 -6.28125 25.00390625 C-6 23 -6 23 -5 22 C-4.67264658 20.1936043 -4.3888352 18.37925994 -4.125 16.5625 C-3.22268333 10.85466348 -1.81813231 5.47863869 0 0 Z " fill="#C53F3A" transform="translate(599,72)"/>
<path d="M0 0 C2.41760876 0.11426509 4.83347218 0.24099661 7.25 0.375 C7.93191406 0.4059375 8.61382812 0.436875 9.31640625 0.46875 C13.03579932 0.68541367 15.79161992 1.09954063 19 3 C22.64190647 4.10557875 26.29911843 5.11178842 30 6 C30 6.66 30 7.32 30 8 C30.886875 8.12375 31.77375 8.2475 32.6875 8.375 C35.74601742 8.95207876 38.23643102 9.57873595 41 11 C41.495 12.485 41.495 12.485 42 14 C42.66 14 43.32 14 44 14 C43.67 14.66 43.34 15.32 43 16 C42.23816406 15.60167969 41.47632813 15.20335938 40.69140625 14.79296875 C31.20132895 9.92352834 22.07833113 6.92043476 11.75878906 4.44482422 C7.7628387 3.48065652 3.87992358 2.35767155 0 1 C0 0.67 0 0.34 0 0 Z " fill="#C73D3B" transform="translate(140,87)"/>
<path d="M0 0 C0 0.33 0 0.66 0 1 C-0.78536133 1.0501123 -1.57072266 1.10022461 -2.37988281 1.15185547 C-6.00369002 1.38666284 -9.62681535 1.63078132 -13.25 1.875 C-15.10238281 1.99294922 -15.10238281 1.99294922 -16.9921875 2.11328125 C-24.76332583 2.64499071 -32.34524199 3.55386468 -40 5 C-40 6.32 -40 7.64 -40 9 C-42.97 8.67 -45.94 8.34 -49 8 C-36.68530013 -2.19448032 -14.93361514 -2.85428424 0 0 Z " fill="#FBD6CF" transform="translate(168,44)"/>
<path d="M0 0 C1.11697517 0.00303635 1.11697517 0.00303635 2.2565155 0.00613403 C3.02569809 0.00517731 3.79488068 0.00422058 4.58737183 0.00323486 C6.22586651 0.00255221 7.86436386 0.00441237 9.50285339 0.00857544 C11.96963395 0.01384276 14.43622564 0.00867557 16.90299988 0.00222778 C25.55322026 -0.00105915 34.09503232 0.20107328 42.70573425 1.13894653 C42.70573425 1.46894653 42.70573425 1.79894653 42.70573425 2.13894653 C27.19573425 2.13894653 11.68573425 2.13894653 -4.29426575 2.13894653 C-4.62426575 5.43894653 -4.95426575 8.73894653 -5.29426575 12.13894653 C-5.62426575 12.13894653 -5.95426575 12.13894653 -6.29426575 12.13894653 C-6.32113854 10.32652602 -6.3406029 8.5139942 -6.35676575 6.70144653 C-6.36836731 5.6921106 -6.37996887 4.68277466 -6.391922 3.64285278 C-6.21410727 -0.91631676 -4.01501294 0.01855879 0 0 Z " fill="#CA3934" transform="translate(337.2942657470703,43.861053466796875)"/>
<path d="M0 0 C3.45382768 2.66886684 3.97301528 5.89206112 5 10 C5.33 10.99 5.66 11.98 6 13 C6.19068221 14.61597469 6.34086819 16.23691885 6.46484375 17.859375 C6.54283203 18.81070313 6.62082031 19.76203125 6.70117188 20.7421875 C6.85747999 22.73156345 7.01116881 24.7211471 7.16210938 26.7109375 C7.51481642 30.96636232 7.85700802 34.94501483 9.19140625 39.015625 C9.45824219 40.00046875 9.72507812 40.9853125 10 42 C9.34 42.99 8.68 43.98 8 45 C5.87825711 35.66778126 4.07212866 26.28111717 2.3125 16.875 C2.08602783 15.67705811 1.85955566 14.47911621 1.6262207 13.24487305 C1.41570068 12.10961182 1.20518066 10.97435059 0.98828125 9.8046875 C0.79790283 8.78358887 0.60752441 7.76249023 0.41137695 6.71044922 C0 4 0 4 0 0 Z " fill="#C33935" transform="translate(561,118)"/>
<path d="M0 0 C2.2477975 2.05233685 3.0022242 3.00667261 4 6 C4.09528823 8.33175914 4.12986188 10.66629974 4.125 13 C4.12886719 14.85625 4.12886719 14.85625 4.1328125 16.75 C4 20 4 20 3 23 C-7.56 23 -18.12 23 -29 23 C-29.33 20.69 -29.66 18.38 -30 16 C-31.92393551 13.1125127 -31.92393551 13.1125127 -34 11 C-31.625 11.1875 -31.625 11.1875 -29 12 C-26.59108766 15.94185655 -27.04823434 17.24117168 -28 22 C-18.1 22 -8.2 22 2 22 C1.855625 19.298125 1.71125 16.59625 1.5625 13.8125 C1.51939697 12.97050049 1.47629395 12.12850098 1.43188477 11.26098633 C1.21603686 7.42181416 0.89541617 3.75472832 0 0 Z " fill="#FDE4DF" transform="translate(193,57)"/>
<path d="M0 0 C0 0.66 0 1.32 0 2 C-4.92064244 4.6099005 -9.77130929 4.26002123 -15.1875 4.1875 C-16.08275391 4.18685547 -16.97800781 4.18621094 -17.90039062 4.18554688 C-23.98330163 4.14601893 -29.95973027 3.70903612 -36 3 C-36 2.34 -36 1.68 -36 1 C-31.19450973 0.85721003 -26.38900832 0.71480303 -21.58349609 0.57275391 C-19.94807629 0.52435717 -18.3126596 0.47585503 -16.67724609 0.42724609 C-14.32910964 0.35747127 -11.98096232 0.28807318 -9.6328125 0.21875 C-8.89942657 0.19687622 -8.16604065 0.17500244 -7.41043091 0.15246582 C-2.22774341 0 -2.22774341 0 0 0 Z " fill="#C2352E" transform="translate(472,162)"/>
<path d="M0 0 C0.99 0 1.98 0 3 0 C2.37319876 9.77013999 0.11258493 19.10912008 -2.0625 28.625 C-2.44390356 30.31367927 -2.82476748 32.00248051 -3.20507812 33.69140625 C-4.1305006 37.79570417 -5.06321893 41.89828038 -6 46 C-6.33 46 -6.66 46 -7 46 C-7.22731216 39.06697907 -6.42002108 32.7831364 -5 26 C-4.34 26 -3.68 26 -3 26 C-2.86722656 24.70964844 -2.73445313 23.41929687 -2.59765625 22.08984375 C-2.41934123 20.37238852 -2.24095187 18.65494101 -2.0625 16.9375 C-1.93198242 15.66616211 -1.93198242 15.66616211 -1.79882812 14.36914062 C-1.29757987 9.56087034 -0.71999467 4.78050517 0 0 Z " fill="#C63F3A" transform="translate(316,112)"/>
<path d="M0 0 C0.99 0 1.98 0 3 0 C3 3.3 3 6.6 3 10 C3.66 10 4.32 10 5 10 C5 12.64 5 15.28 5 18 C5.66 18 6.32 18 7 18 C7.09087891 18.95712891 7.09087891 18.95712891 7.18359375 19.93359375 C7.26738281 20.75988281 7.35117187 21.58617188 7.4375 22.4375 C7.51871094 23.26121094 7.59992188 24.08492187 7.68359375 24.93359375 C7.78930815 26.98662025 7.78930815 26.98662025 9 28 C10.3111262 33.6177451 11.31267229 39.21556273 11 45 C8.79032238 41.68548357 7.99685888 38.61240368 7.08984375 34.8046875 C6.91747696 34.09780792 6.74511017 33.39092834 6.56752014 32.66262817 C6.20409926 31.165445 5.84369285 29.66752734 5.48608398 28.16894531 C4.94398457 25.90211571 4.3897405 23.63851496 3.83398438 21.375 C2.11166493 14.2769384 0.53830795 7.30442475 0 0 Z " fill="#C63A35" transform="translate(380,46)"/>
<path d="M0 0 C0.33 0 0.66 0 1 0 C1.05525226 1.35368041 1.09334369 2.70806235 1.125 4.0625 C1.14820313 4.81660156 1.17140625 5.57070312 1.1953125 6.34765625 C1 9 1 9 0.0546875 12.25390625 C-1.33966281 17.20643199 -1.74958216 22.10185424 -2.2109375 27.2109375 C-2.40877626 29.14839295 -2.69690671 31.07619953 -3 33 C-3.99 33.495 -3.99 33.495 -5 34 C-5.46651207 36.12576782 -5.46651207 36.12576782 -5.625 38.5625 C-5.69976563 39.38878906 -5.77453125 40.21507812 -5.8515625 41.06640625 C-5.90054688 41.70449219 -5.94953125 42.34257813 -6 43 C-6.66 42.34 -7.32 41.68 -8 41 C-7.57580207 33.83282245 -5.83873596 26.77068524 -4.41601562 19.74389648 C-3.99761094 17.67569069 -3.58443112 15.6064889 -3.171875 13.53710938 C-1.13979939 3.41939817 -1.13979939 3.41939817 0 0 Z " fill="#C63A33" transform="translate(635,63)"/>
<path d="M0 0 C1.15548485 3.46645455 0.80567986 5.00910228 0.109375 8.55859375 C-0.10589844 9.66783203 -0.32117188 10.77707031 -0.54296875 11.91992188 C-0.77628906 13.08072266 -1.00960938 14.24152344 -1.25 15.4375 C-1.46785156 16.56349609 -1.68570312 17.68949219 -1.91015625 18.84960938 C-3.37477103 26.29687575 -5.08689386 33.65557551 -7 41 C-7.33 41 -7.66 41 -8 41 C-7.27247184 31.96333446 -6.16165032 22.9886923 -5 14 C-4.34 14 -3.68 14 -3 14 C-3.061875 12.989375 -3.12375 11.97875 -3.1875 10.9375 C-2.97357173 6.44500628 -1.95386468 3.98914039 0 0 Z " fill="#C14540" transform="translate(328,66)"/>
<path d="M0 0 C11.88 0 23.76 0 36 0 C36.495 1.98 36.495 1.98 37 4 C36.01 4.33 35.02 4.66 34 5 C34 4.01 34 3.02 34 2 C22.45 2 10.9 2 -1 2 C-0.67 1.34 -0.34 0.68 0 0 Z " fill="#CA504A" transform="translate(35,73)"/>
<path d="M0 0 C1.01058283 3.23537338 0.99200982 5.82985606 0.625 9.1875 C0.53476562 10.06792969 0.44453125 10.94835937 0.3515625 11.85546875 C0 14 0 14 -1 15 C-1.37494796 17.26433416 -1.70003943 19.5370179 -2 21.8125 C-2.50336698 25.60741512 -2.99527907 29.30467049 -4 33 C-4.12375 33.763125 -4.2475 34.52625 -4.375 35.3125 C-5.1805098 38.77619214 -6.53831274 41.75886738 -8 45 C-9.57760559 41.00000646 -8.36212152 37.53880007 -7.3125 33.5625 C-5.34293292 25.71374482 -3.76534141 17.82805806 -2.30786133 9.86938477 C-2.1508374 9.01787842 -1.99381348 8.16637207 -1.83203125 7.2890625 C-1.69514893 6.53318848 -1.5582666 5.77731445 -1.41723633 4.99853516 C-1 3 -1 3 0 0 Z " fill="#FADBD5" transform="translate(329,66)"/>
<path d="M0 0 C12.21 0 24.42 0 37 0 C37 0.66 37 1.32 37 2 C25.45 2 13.9 2 2 2 C2 2.99 2 3.98 2 5 C1.34 5 0.68 5 0 5 C0 3.35 0 1.7 0 0 Z " fill="#C04843" transform="translate(32,101)"/>
<path d="M0 0 C1 3 1 3 0 6 C-4.94825616 5.90657935 -9.89601634 5.8005124 -14.84375 5.68261719 C-16.52759329 5.64428896 -18.21151955 5.60944288 -19.89550781 5.578125 C-22.31345306 5.53255713 -24.73082528 5.47455077 -27.1484375 5.4140625 C-27.9036972 5.40251129 -28.65895691 5.39096008 -29.43710327 5.37905884 C-34.77225659 5.22774341 -34.77225659 5.22774341 -37 3 C-25.12 2.67 -13.24 2.34 -1 2 C-0.67 1.34 -0.34 0.68 0 0 Z " fill="#C82D28" transform="translate(71,160)"/>
<path d="M0 0 C1.4282618 0.00031703 2.85654759 0.01163717 4.28466797 0.03173828 C5.41242142 0.03598312 5.41242142 0.03598312 6.56295776 0.04031372 C8.96775125 0.05152204 11.37217428 0.07662726 13.77685547 0.10205078 C15.40575635 0.11207976 17.03466305 0.12120576 18.66357422 0.12939453 C22.65981103 0.15146343 26.65577041 0.18599728 30.65185547 0.22705078 C31.31185547 1.54705078 31.97185547 2.86705078 32.65185547 4.22705078 C31.66185547 4.55705078 30.67185547 4.88705078 29.65185547 5.22705078 C29.65185547 4.23705078 29.65185547 3.24705078 29.65185547 2.22705078 C18.10185547 2.22705078 6.55185547 2.22705078 -5.34814453 2.22705078 C-3.34814453 0.22705078 -3.34814453 0.22705078 0 0 Z " fill="#BC3D38" transform="translate(39.34814453125,128.77294921875)"/>
<path d="M0 0 C16.83 0 33.66 0 51 0 C50.36220245 7.01577306 49.85278053 12.4535088 48 19 C47.67 19 47.34 19 47 19 C47.33 13.39 47.66 7.78 48 2 C32.16 1.67 16.32 1.34 0 1 C0 0.67 0 0.34 0 0 Z " fill="#FDE0DA" transform="translate(249,93)"/>
<path d="M0 0 C15.51 0 31.02 0 47 0 C47.495 3.465 47.495 3.465 48 7 C47.34 7 46.68 7 46 7 C45.87625 6.360625 45.7525 5.72125 45.625 5.0625 C45.41875 4.381875 45.2125 3.70125 45 3 C41.61606992 1.30803496 37.77522209 1.88013451 34.0546875 1.90234375 C33.1696756 1.9037587 32.2846637 1.90517365 31.37283325 1.90663147 C28.54018809 1.9122386 25.70762136 1.92479229 22.875 1.9375 C20.95703239 1.94251408 19.03906354 1.94707715 17.12109375 1.95117188 C12.41403218 1.96221034 7.7070294 1.97947975 3 2 C2.01 4.31 1.02 6.62 0 9 C-1.22596039 5.32211882 -0.84310077 4.21550387 0 0 Z " fill="#FCD7D1" transform="translate(333,46)"/>
<path d="M0 0 C0.33 0 0.66 0 1 0 C1 3.63 1 7.26 1 11 C18.82 11 36.64 11 55 11 C55 11.33 55 11.66 55 12 C36.19 12 17.38 12 -2 12 C-1.34 8.04 -0.68 4.08 0 0 Z " fill="#C43732" transform="translate(240,128)"/>
<path d="M0 0 C0.33 0 0.66 0 1 0 C0.67 5.28 0.34 10.56 0 16 C-0.66 16 -1.32 16 -2 16 C-2 18.97 -2 21.94 -2 25 C-2.66 25 -3.32 25 -4 25 C-4.05607422 26.46373047 -4.05607422 26.46373047 -4.11328125 27.95703125 C-4.17902344 29.22933594 -4.24476563 30.50164062 -4.3125 31.8125 C-4.37050781 33.07707031 -4.42851562 34.34164062 -4.48828125 35.64453125 C-5.03215977 39.21087968 -5.43889688 39.74897223 -8 42 C-7.36425758 32.92052371 -5.43573776 24.22700653 -3.4375 15.375 C-3.1042863 13.87902452 -2.77159993 12.38293147 -2.43945312 10.88671875 C-1.6323732 7.25643787 -0.81818261 3.62779682 0 0 Z " fill="#C6423F" transform="translate(441,80)"/>
<path d="M0 0 C0.99 0 1.98 0 3 0 C2.11277292 2.80955243 1.2027223 5.5566417 -0.0234375 8.23828125 C-4.09747949 17.29652354 -4.1664507 25.13868818 -0.65625 34.41796875 C-0.4396875 34.94003906 -0.223125 35.46210937 0 36 C-0.99 36 -1.98 36 -3 36 C-3 35.01 -3 34.02 -3 33 C-3.66 33 -4.32 33 -5 33 C-5.08776185 29.31265225 -5.14064603 25.62557653 -5.1875 21.9375 C-5.22520508 20.37999023 -5.22520508 20.37999023 -5.26367188 18.79101562 C-5.32160147 12.70840838 -4.90687164 8.37885697 -2 3 C-1.01 3 -0.02 3 1 3 C0.67 2.01 0.34 1.02 0 0 Z " fill="#C7302E" transform="translate(101,64)"/>
<path d="M0 0 C0.66 0 1.32 0 2 0 C1.95359375 0.95519531 1.9071875 1.91039063 1.859375 2.89453125 C1.60535346 11.99394582 1.44466418 21.0215401 7.9765625 28.16015625 C9.92268969 29.88336342 11.91435367 31.4515656 14 33 C14.66 33.66 15.32 34.32 16 35 C13.69 34.67 11.38 34.34 9 34 C9 33.34 9 32.68 9 32 C7.68 31.67 6.36 31.34 5 31 C4.896875 30.401875 4.79375 29.80375 4.6875 29.1875 C4.18003094 26.9346991 4.18003094 26.9346991 2.5 25.625 C-1.2995295 21.50884304 -0.11750241 13.93061699 -0.0625 8.625 C-0.05798828 7.79355469 -0.05347656 6.96210938 -0.04882812 6.10546875 C-0.03713164 4.07028103 -0.01919935 2.03513077 0 0 Z " fill="#BC453E" transform="translate(84,126)"/>
<path d="M0 0 C6.75420309 0.46580711 10.33896462 2.04037794 15.671875 6.3515625 C17 8 17 8 17.21484375 10.15625 C16.45935728 16.54064272 16.45935728 16.54064272 13.9375 19.0625 C12.9784375 19.5265625 12.9784375 19.5265625 12 20 C12.66 17.03 13.32 14.06 14 11 C13.01 10.67 12.02 10.34 11 10 C11.33 8.68 11.66 7.36 12 6 C11.38125 5.87625 10.7625 5.7525 10.125 5.625 C8 5 8 5 6 3 C4.01643517 2.28591666 2.01684563 1.61382258 0 1 C0 0.67 0 0.34 0 0 Z " fill="#C33C39" transform="translate(138,117)"/>
<path d="M0 0 C-0.33 0.66 -0.66 1.32 -1 2 C-12.55 2 -24.1 2 -36 2 C-35.67 1.34 -35.34 0.68 -35 0 C-30.49786378 -0.16773186 -25.99555027 -0.32827877 -21.49291992 -0.48217773 C-19.96127431 -0.53554122 -18.42969573 -0.59086614 -16.89819336 -0.64819336 C-14.69659883 -0.73026252 -12.49485949 -0.80527067 -10.29296875 -0.87890625 C-9.26625313 -0.91945885 -9.26625313 -0.91945885 -8.21879578 -0.96083069 C-5.1530145 -1.05703182 -2.94080618 -0.98026873 0 0 Z " fill="#BE3631" transform="translate(691,157)"/>
<path d="M0 0 C0.33 0 0.66 0 1 0 C0.86040799 3.22946798 0.71221895 6.45848691 0.5625 9.6875 C0.50352539 11.05551758 0.50352539 11.05551758 0.44335938 12.45117188 C0.40146484 13.33740234 0.35957031 14.22363281 0.31640625 15.13671875 C0.27974854 15.94842529 0.24309082 16.76013184 0.20532227 17.59643555 C-0.01059366 20.12401259 -0.4623899 22.5225113 -1 25 C-1.12375 25.66 -1.2475 26.32 -1.375 27 C-2.18907614 29.60504365 -3.53617944 31.7088026 -5 34 C-5.66 33.67 -6.32 33.34 -7 33 C-6.823479 32.24904053 -6.64695801 31.49808105 -6.46508789 30.72436523 C-5.66110448 27.29613344 -4.8617637 23.86683509 -4.0625 20.4375 C-3.78470703 19.25607422 -3.50691406 18.07464844 -3.22070312 16.85742188 C-1.91747278 11.25196124 -0.66349056 5.71945661 0 0 Z " fill="#FCE3DB" transform="translate(407,100)"/>
<path d="M0 0 C1 4 1 4 1 9 C17.83 9.33 34.66 9.66 52 10 C51.67 10.99 51.34 11.98 51 13 C50.505 12.01 50.505 12.01 50 11 C32.84 11 15.68 11 -2 11 C-1.34 7.37 -0.68 3.74 0 0 Z " fill="#B95954" transform="translate(250,82)"/>
<path d="M0 0 C0.33 0 0.66 0 1 0 C1.1862429 5.12167976 0.80029489 9.46254247 -0.4296875 14.42578125 C-1.36227259 18.63518929 -1.87193835 22.90767721 -2.4375 27.1796875 C-3 30 -3 30 -5 33 C-5.70812814 35.32108669 -6.38024152 37.65377147 -7 40 C-8.68568718 36.62862564 -7.12702528 33.0434718 -6.34765625 29.4921875 C-6.16867294 28.65156769 -5.98968964 27.81094788 -5.80528259 26.94485474 C-5.23071006 24.25349604 -4.64671945 21.56427938 -4.0625 18.875 C-3.67190526 17.05351843 -3.28192335 15.23190532 -2.89257812 13.41015625 C-1.93549661 8.93854546 -0.96996227 4.46883366 0 0 Z " fill="#C53F3C" transform="translate(432,122)"/>
<path d="M0 0 C0.66 0.33 1.32 0.66 2 1 C1.43152344 1.94359375 0.86304688 2.8871875 0.27734375 3.859375 C-4.54329604 11.87142292 -9.31377937 19.90835858 -14 28 C-15.12297956 24.24877039 -14.72975914 22.55055823 -13 19 C-12.34 18.01 -11.68 17.02 -11 16 C-10.34 16 -9.68 16 -9 16 C-9 14.68 -9 13.36 -9 12 C-7.5625 10.375 -7.5625 10.375 -6 9 C-5.67 8.34 -5.34 7.68 -5 7 C-4.34 7 -3.68 7 -3 7 C-3.061875 6.21625 -3.12375 5.4325 -3.1875 4.625 C-3.125625 3.75875 -3.06375 2.8925 -3 2 C-2.01 1.34 -1.02 0.68 0 0 Z " fill="#C63B38" transform="translate(494,64)"/>
<path d="M0 0 C0.66 0.66 1.32 1.32 2 2 C1.6875 5.1875 1.6875 5.1875 1 9 C0.67 11.31 0.34 13.62 0 16 C8.58 16 17.16 16 26 16 C26 16.33 26 16.66 26 17 C16.43 17 6.86 17 -3 17 C-2.30778317 10.77004856 -1.5972643 5.85663575 0 0 Z " fill="#FDD0C9" transform="translate(312,146)"/>
<path d="M0 0 C10.89 0 21.78 0 33 0 C32.67 2.31 32.34 4.62 32 7 C31.67 7 31.34 7 31 7 C31 5.35 31 3.7 31 2 C21.43 2 11.86 2 2 2 C1.34 5.63 0.68 9.26 0 13 C-0.66 13 -1.32 13 -2 13 C-2.33 13.99 -2.66 14.98 -3 16 C-2.30157654 10.52901623 -1.20795667 5.435805 0 0 Z " fill="#FDD9D2" transform="translate(606,46)"/>
<path d="M0 0 C0.33 0 0.66 0 1 0 C0.71817692 10.93985957 -2.33403373 21.45217424 -5 32 C-5.33 32 -5.66 32 -6 32 C-6.23744563 26.18258202 -5.68423272 21.61410906 -4 16 C-3.46920691 12.63558842 -3.00235491 9.26808235 -2.5625 5.890625 C-2 3 -2 3 0 0 Z " fill="#C63D38" transform="translate(213,96)"/>
<path d="M0 0 C0.33 0 0.66 0 1 0 C1.38078689 6.50158351 0.68283402 11.89996581 -1.2109375 18.12109375 C-2.31644438 22.15455201 -2.84533345 26.22755646 -3.375 30.37109375 C-4.05647286 33.23753897 -5.08253436 34.79595661 -7 37 C-6.31137469 28.9892828 -4.66689417 21.28196777 -2.9375 13.4375 C-2.652578 12.12964802 -2.36806969 10.82170585 -2.08398438 9.51367188 C-1.39337262 6.3415399 -0.69861189 3.1703779 0 0 Z " fill="#FBDBD4" transform="translate(596,92)"/>
<path d="M0 0 C0.33 0 0.66 0 1 0 C0.23939012 7.62535479 -1.42462639 15.02126387 -3.0625 22.5 C-3.3473247 23.8124307 -3.6318325 25.12493022 -3.91601562 26.4375 C-4.60757133 29.62568901 -5.30231863 32.81314691 -6 36 C-6.86688859 33.10089716 -7.0458562 30.88547169 -6.66015625 27.890625 C-6.56669922 27.13652344 -6.47324219 26.38242188 -6.37695312 25.60546875 C-6.27318359 24.82816406 -6.16941406 24.05085938 -6.0625 23.25 C-5.96259766 22.45722656 -5.86269531 21.66445312 -5.75976562 20.84765625 C-5.51307129 18.89759629 -5.2574122 16.94867414 -5 15 C-4.34 15 -3.68 15 -3 15 C-3.061875 13.824375 -3.12375 12.64875 -3.1875 11.4375 C-3.21144173 6.96039699 -1.9879056 3.9758112 0 0 Z " fill="#C23D3B" transform="translate(412,74)"/>
<path d="M0 0 C0.99 0.33 1.98 0.66 3 1 C0.9231324 4.56630657 -1.16262228 8.1273365 -3.25 11.6875 C-4.12978516 13.19860352 -4.12978516 13.19860352 -5.02734375 14.74023438 C-5.60097656 15.71669922 -6.17460937 16.69316406 -6.765625 17.69921875 C-7.55114746 19.04246216 -7.55114746 19.04246216 -8.35253906 20.4128418 C-10.06750481 23.10600896 -11.96359229 25.54353481 -14 28 C-13.505 23.545 -13.505 23.545 -13 19 C-12.34 19 -11.68 19 -11 19 C-11 18.34 -11 17.68 -11 17 C-10.01 17 -9.02 17 -8 17 C-7.67 15.35 -7.34 13.7 -7 12 C-6.34 12 -5.68 12 -5 12 C-4.896875 11.4225 -4.79375 10.845 -4.6875 10.25 C-3.89914262 7.6699213 -2.60910793 6.14547724 -1 4 C-0.29485154 1.85266073 -0.29485154 1.85266073 0 0 Z " fill="#C53D3C" transform="translate(471,100)"/>
<path d="M0 0 C-0.75023438 0.32871094 -1.50046875 0.65742187 -2.2734375 0.99609375 C-9.20574626 4.21778384 -14.54015732 7.83248207 -20.0390625 13.14453125 C-22 15 -22 15 -24 16 C-23.6875 14.0625 -23.6875 14.0625 -23 12 C-22.01 11.67 -21.02 11.34 -20 11 C-19.26676204 8.98491642 -19.26676204 8.98491642 -19 7 C-18.01 7 -17.02 7 -16 7 C-15.67 6.01 -15.34 5.02 -15 4 C-14.01 3.67 -13.02 3.34 -12 3 C-11.67 2.34 -11.34 1.68 -11 1 C-6.894382 -0.47182532 -4.17395843 -1.29917911 0 0 Z " fill="#C4433E" transform="translate(128,48)"/>
<path d="M0 0 C9.57 0 19.14 0 29 0 C29 1.65 29 3.3 29 5 C28.67 3.68 28.34 2.36 28 1 C19.09 1 10.18 1 1 1 C1 3.64 1 6.28 1 9 C0 11.5 0 11.5 -1 13 C-1.33 13 -1.66 13 -2 13 C-1.85769192 11.58297487 -1.71099254 10.1663904 -1.5625 8.75 C-1.48128906 7.96109375 -1.40007812 7.1721875 -1.31640625 6.359375 C-1 4 -1 4 0 0 Z " fill="#FDD7D3" transform="translate(419,46)"/>
<path d="M0 0 C10.67637966 1.58065881 20.41971777 3.82808824 30 9 C30.33 9.66 30.66 10.32 31 11 C27.1936543 10.32829194 23.64793184 9.27253436 20 8 C20 7.34 20 6.68 20 6 C19.0925 6.04125 18.185 6.0825 17.25 6.125 C13.9460154 5.99792367 12.84570383 5.4361496 10 4 C7.65220583 3.43179435 5.30134739 2.99795566 2.92578125 2.5625 C2.29027344 2.376875 1.65476563 2.19125 1 2 C0.67 1.34 0.34 0.68 0 0 Z " fill="#FDDDD8" transform="translate(150,91)"/>
<path d="M0 0 C0.33 0.66 0.66 1.32 1 2 C0.54625 2.70125 0.0925 3.4025 -0.375 4.125 C-2.48234275 7.85337564 -2.64003226 10.7523807 -3 15 C-3.5775 15.04125 -4.155 15.0825 -4.75 15.125 C-8.13312465 16.44065958 -9.19222685 18.96552364 -11 22 C-11.66 21.67 -12.32 21.34 -13 21 C-11.58520403 18.62386831 -10.16822586 16.24908342 -8.75 13.875 C-8.35425781 13.20984375 -7.95851563 12.5446875 -7.55078125 11.859375 C-5.13948537 7.82737205 -2.63950086 3.88660447 0 0 Z " fill="#FCDFD6" transform="translate(490,74)"/>
<path d="M0 0 C2.34486081 3.60881924 1.97643817 5.98180213 1.1875 10.125 C0.99542969 11.17945313 0.80335938 12.23390625 0.60546875 13.3203125 C0 16 0 16 -1 18 C-1.22467831 19.53668865 -1.40796805 21.07968054 -1.5625 22.625 C-1.64628906 23.44226563 -1.73007812 24.25953125 -1.81640625 25.1015625 C-1.87699219 25.72804687 -1.93757812 26.35453125 -2 27 C-2.99 27 -3.98 27 -5 27 C-3.37772519 17.99160341 -1.69296954 8.99531146 0 0 Z " fill="#CA4240" transform="translate(619,136)"/>
<path d="M0 0 C1.14806133 3.41975716 0.83383098 5.72148953 0.00390625 9.203125 C-0.22490234 10.1828125 -0.45371094 11.1625 -0.68945312 12.171875 C-0.93630859 13.18765625 -1.18316406 14.2034375 -1.4375 15.25 C-1.80198242 16.796875 -1.80198242 16.796875 -2.17382812 18.375 C-2.77442781 20.91871633 -3.38341641 23.46011941 -4 26 C-4.33 26 -4.66 26 -5 26 C-5.09688221 20.55306686 -5.12862175 15.36095333 -4 10 C-3.34 10 -2.68 10 -2 10 C-1.93941406 9.36191406 -1.87882812 8.72382813 -1.81640625 8.06640625 C-1.73261719 7.24011719 -1.64882813 6.41382813 -1.5625 5.5625 C-1.48128906 4.73878906 -1.40007812 3.91507813 -1.31640625 3.06640625 C-1 1 -1 1 0 0 Z " fill="#FCE1D9" transform="translate(343,134)"/>
<path d="M0 0 C0.66 0 1.32 0 2 0 C1.24595285 8.44532805 -0.37828042 16.68741223 -2 25 C-2.66 24.67 -3.32 24.34 -4 24 C-3.85890014 21.89551062 -3.71195825 19.7914123 -3.5625 17.6875 C-3.48128906 16.51574219 -3.40007812 15.34398437 -3.31640625 14.13671875 C-3 11 -3 11 -2 8 C-1.34 8 -0.68 8 0 8 C0 5.36 0 2.72 0 0 Z " fill="#C43E39" transform="translate(203,138)"/>
<path d="M0 0 C3.3 0 6.6 0 10 0 C10 0.33 10 0.66 10 1 C7.36 1.33 4.72 1.66 2 2 C1.97301578 4.43757413 1.95316901 6.87484915 1.9375 9.3125 C1.92912109 10.00279297 1.92074219 10.69308594 1.91210938 11.40429688 C1.89692094 14.5483025 1.99806673 16.99420019 3 20 C2.34 20.66 1.68 21.32 1 22 C-1.44067583 15.4406837 -1.41770071 8.94548862 -1 2 C-0.67 1.34 -0.34 0.68 0 0 Z " fill="#FDDFD9" transform="translate(86,126)"/>
<path d="M0 0 C0 0.66 0 1.32 0 2 C-0.639375 2.4125 -1.27875 2.825 -1.9375 3.25 C-4.70358232 5.59697894 -4.68711892 7.48008781 -5 11 C-4.34 11 -3.68 11 -3 11 C-2.67 12.32 -2.34 13.64 -2 15 C-1.34 15 -0.68 15 0 15 C0 15.99 0 16.98 0 18 C-3.65316671 16.75023244 -4.78065836 16.32901247 -7 13 C-7.438907 9.67684704 -7.69069723 7.17598264 -5.94921875 4.2109375 C-2.56649882 0 -2.56649882 0 0 0 Z " fill="#BB4547" transform="translate(140,69)"/>
<path d="M0 0 C0.66 0 1.32 0 2 0 C1.85962479 1.81293089 1.71255111 3.6253443 1.5625 5.4375 C1.48128906 6.44683594 1.40007812 7.45617188 1.31640625 8.49609375 C1 11 1 11 0 12 C0.04125 13.258125 0.0825 14.51625 0.125 15.8125 C0.17946037 18.84594284 0.11214173 19.81309712 -1.5 22.5 C-1.995 22.995 -2.49 23.49 -3 24 C-3.66 23.67 -4.32 23.34 -5 23 C-3.35 15.41 -1.7 7.82 0 0 Z " fill="#C43633" transform="translate(315,46)"/>
<path d="M0 0 C0.99 0.33 1.98 0.66 3 1 C5.13661258 1.15070797 7.27712124 1.2485966 9.41796875 1.31640625 C10.67158203 1.35830078 11.92519531 1.40019531 13.21679688 1.44335938 C15.18229492 1.50233398 15.18229492 1.50233398 17.1875 1.5625 C18.52279978 1.60570992 19.85808652 1.649325 21.19335938 1.69335938 C24.46213297 1.79956502 27.73098333 1.90160997 31 2 C31 1.34 31 0.68 31 0 C32.32 0 33.64 0 35 0 C35 0.99 35 1.98 35 3 C23.45 3 11.9 3 0 3 C0 2.01 0 1.02 0 0 Z " fill="#FFEAE0" transform="translate(34,103)"/>
<path d="M0 0 C0.33 0 0.66 0 1 0 C0.48400816 7.8822202 -1.0921453 15.34458305 -3 23 C-3.33 23 -3.66 23 -4 23 C-4.30050602 15.15345395 -4.48355057 6.72532586 0 0 Z " fill="#FCE1D8" transform="translate(444,61)"/>
<path d="M0 0 C0.33 0 0.66 0 1 0 C1.02685938 2.14576637 1.04633088 4.29162645 1.0625 6.4375 C1.07410156 7.63246094 1.08570313 8.82742187 1.09765625 10.05859375 C1 13 1 13 0 14 C-0.3931648 15.67884238 -0.74085452 17.36850045 -1.0625 19.0625 C-1.32740234 20.44115234 -1.32740234 20.44115234 -1.59765625 21.84765625 C-1.73042969 22.55792969 -1.86320312 23.26820312 -2 24 C-2.66 24 -3.32 24 -4 24 C-3.28621973 15.86290495 -1.67226118 7.98268072 0 0 Z " fill="#C74140" transform="translate(446,56)"/>
<path d="M0 0 C0.33 1.32 0.66 2.64 1 4 C1.80219971 4 2.60439941 4 3.4309082 4 C12.62060547 4 21.81030273 4 31 4 C30.67 4.66 30.34 5.32 30 6 C19.11 6 8.22 6 -3 6 C-1 1 -1 1 0 0 Z " fill="#FDD0CB" transform="translate(439,157)"/>
<path d="M0 0 C1.5131898 0.04235908 3.02608912 0.09602971 4.53857422 0.15869141 C5.33480194 0.18371735 6.13102966 0.20874329 6.9513855 0.23452759 C9.49910476 0.31682088 12.04605946 0.41337293 14.59326172 0.51025391 C16.31849072 0.56848402 18.04375126 0.6257875 19.76904297 0.68212891 C24.00255709 0.82241331 28.23543979 0.97548903 32.46826172 1.13525391 C32.46826172 1.46525391 32.46826172 1.79525391 32.46826172 2.13525391 C20.91826172 2.13525391 9.36826172 2.13525391 -2.53173828 2.13525391 C-2.86173828 3.45525391 -3.19173828 4.77525391 -3.53173828 6.13525391 C-4.19173828 4.81525391 -4.85173828 3.49525391 -5.53173828 2.13525391 C-3.53173828 0.13525391 -3.53173828 0.13525391 0 0 Z " fill="#CA3129" transform="translate(657.53173828125,99.86474609375)"/>
<path d="M0 0 C1.4606285 2.64738916 2 3.89448334 2 7 C-10.21 7 -22.42 7 -35 7 C-35 6.67 -35 6.34 -35 6 C-23.78 5.67 -12.56 5.34 -1 5 C-0.67 3.35 -0.34 1.7 0 0 Z " fill="#FFD5D0" transform="translate(567,156)"/>
<path d="M0 0 C1.23322843 3.58348444 0.7721117 6.18697824 0.00390625 9.859375 C-0.33930664 11.53193359 -0.33930664 11.53193359 -0.68945312 13.23828125 C-0.93630859 14.39714844 -1.18316406 15.55601562 -1.4375 16.75 C-1.68048828 17.92433594 -1.92347656 19.09867188 -2.17382812 20.30859375 C-2.77480798 23.20743777 -3.38380502 26.1043588 -4 29 C-4.33 29 -4.66 29 -5 29 C-4.40859432 11.23743627 -4.40859432 11.23743627 -1 3 C-0.67 2.01 -0.34 1.02 0 0 Z " fill="#C7403D" transform="translate(586,134)"/>
<path d="M0 0 C0.33 0 0.66 0 1 0 C1.05422947 1.4370809 1.09289723 2.87475462 1.125 4.3125 C1.14820313 5.11300781 1.17140625 5.91351563 1.1953125 6.73828125 C1 9 1 9 -1 12 C-1.61257472 15.37766893 -2.01639779 18.75764642 -2.4375 22.1640625 C-2.623125 23.09992188 -2.80875 24.03578125 -3 25 C-3.66 25.33 -4.32 25.66 -5 26 C-4.35343144 17.10968231 -2.12977433 8.62806252 0 0 Z " fill="#FAD0C8" transform="translate(588,130)"/>
<path d="M0 0 C3.27184808 0.08084703 6.54182779 0.19368874 9.8125 0.3125 C10.74126953 0.33505859 11.67003906 0.35761719 12.62695312 0.38085938 C13.51962891 0.41630859 14.41230469 0.45175781 15.33203125 0.48828125 C16.56530151 0.52755737 16.56530151 0.52755737 17.82348633 0.56762695 C20.45640952 1.09066756 21.39300446 1.88125967 23 4 C23 4.66 23 5.32 23 6 C22.42894531 5.80664062 21.85789063 5.61328125 21.26953125 5.4140625 C14.2648671 3.16455191 7.283594 1.97038478 0 1 C0 0.67 0 0.34 0 0 Z " fill="#C94441" transform="translate(162,43)"/>
<path d="M0 0 C11.55 0 23.1 0 35 0 C34.67 0.99 34.34 1.98 34 3 C34 2.34 34 1.68 34 1 C23.77 1 13.54 1 3 1 C3 1.66 3 2.32 3 3 C2.01 3 1.02 3 0 3 C0 2.01 0 1.02 0 0 Z " fill="#FFDED3" transform="translate(34,131)"/>
<path d="M0 0 C0.66 0 1.32 0 2 0 C2 0.66 2 1.32 2 2 C1.34 2 0.68 2 0 2 C0.061875 3.299375 0.12375 4.59875 0.1875 5.9375 C0.19549518 10.99045413 -0.88530823 15.41170088 -3 20 C-3.66 20.66 -4.32 21.32 -5 22 C-3.15217391 3.15217391 -3.15217391 3.15217391 0 0 Z " fill="#C53836" transform="translate(301,94)"/>
<path d="M0 0 C0.33 0 0.66 0 1 0 C1.23655974 5.79571371 0.72753429 10.41091847 -1 16 C-1.42827345 18.66376675 -1.71738726 21.31517896 -2 24 C-4.64143533 20.037847 -3.86113701 17.44237346 -3 13 C-2.05498041 8.65290987 -1.04789102 4.32337428 0 0 Z " fill="#C5433F" transform="translate(635,63)"/>
<path d="M0 0 C1.79041248 3.23831126 2.73750239 6.41415108 3.625 10 C3.88539063 11.03125 4.14578125 12.0625 4.4140625 13.125 C5 16 5 16 5 20 C4.01 20 3.02 20 2 20 C1.92652344 18.82630859 1.92652344 18.82630859 1.8515625 17.62890625 C1.77679688 16.61699219 1.70203125 15.60507813 1.625 14.5625 C1.55539062 13.55316406 1.48578125 12.54382813 1.4140625 11.50390625 C1.27742188 10.67761719 1.14078125 9.85132812 1 9 C0.34 8.67 -0.32 8.34 -1 8 C-0.67 5.36 -0.34 2.72 0 0 Z " fill="#C53E39" transform="translate(365,108)"/>
<path d="M0 0 C0.33 0 0.66 0 1 0 C1.36842105 6.50877193 1.36842105 6.50877193 -0.3125 8.75 C-1.1478125 9.36875 -1.1478125 9.36875 -2 10 C-4.71278039 12.38724674 -5.80271213 14.59233453 -7 18 C-7.66 18 -8.32 18 -9 18 C-7.6510689 13.48548686 -5.83381706 9.67722719 -3.4375 5.625 C-2.81746094 4.56539063 -2.19742187 3.50578125 -1.55859375 2.4140625 C-0.78708984 1.21910156 -0.78708984 1.21910156 0 0 Z " fill="#C14440" transform="translate(512,84)"/>
<path d="M0 0 C0.66 0 1.32 0 2 0 C2.144375 1.134375 2.28875 2.26875 2.4375 3.4375 C2.61171478 6.80777201 2.61171478 6.80777201 4 8 C4.07271741 10.35313555 4.08370868 12.70833668 4.0625 15.0625 C4.05347656 16.35285156 4.04445313 17.64320312 4.03515625 18.97265625 C4.02355469 19.97167969 4.01195312 20.97070312 4 22 C3.67 22 3.34 22 3 22 C2.49599549 19.08397391 1.99665334 16.16727908 1.5 13.25 C1.35691406 12.425 1.21382812 11.6 1.06640625 10.75 C0.93105469 9.95078125 0.79570313 9.1515625 0.65625 8.328125 C0.53056641 7.5949707 0.40488281 6.86181641 0.27539062 6.10644531 C0 4 0 4 0 0 Z " fill="#C53B38" transform="translate(557,96)"/>
<path d="M0 0 C0.66 0 1.32 0 2 0 C2 2.97 2 5.94 2 9 C1.01 9 0.02 9 -1 9 C-1.99 9.33 -2.98 9.66 -4 10 C-3.52651586 5.8333396 -2.95303159 3.07115285 0 0 Z " fill="#CE332F" transform="translate(517,76)"/>
<path d="M0 0 C0.99 0.33 1.98 0.66 3 1 C2.01 2.485 2.01 2.485 1 4 C0.80149397 7.70544587 0.82335129 10.47005387 2 14 C0.68 13.67 -0.64 13.34 -2 13 C-2.92221976 8.29667924 -3.27536232 5.29790661 -1 1 C-0.67 0.67 -0.34 0.34 0 0 Z " fill="#FEEDE6" transform="translate(133,71)"/>
<path d="M0 0 C0.33 0.66 0.66 1.32 1 2 C-0.85001839 7.34449757 -3.32920772 10.74960894 -7 15 C-7.33 15.99 -7.66 16.98 -8 18 C-8.66 18 -9.32 18 -10 18 C-8.47146065 13.72813475 -6.28490519 10.00673137 -3.875 6.1875 C-3.50246094 5.59001953 -3.12992187 4.99253906 -2.74609375 4.37695312 C-1.8342952 2.91573749 -0.91764024 1.45755415 0 0 Z " fill="#FDDDD7" transform="translate(501,56)"/>
<path d="M0 0 C0.33 1.32 0.66 2.64 1 4 C0.01 4 -0.98 4 -2 4 C-2.20625 4.556875 -2.4125 5.11375 -2.625 5.6875 C-4.62143247 9.04513643 -6.78478875 10.74935212 -10 13 C-12.1953125 12.63671875 -12.1953125 12.63671875 -14 12 C-13.32453125 11.55269531 -12.6490625 11.10539063 -11.953125 10.64453125 C-5.23560348 6.12119488 -5.23560348 6.12119488 0 0 Z " fill="#C7433F" transform="translate(182,144)"/>
<path d="M0 0 C0.33 0 0.66 0 1 0 C1 3.63 1 7.26 1 11 C5.62 11 10.24 11 15 11 C15 11.33 15 11.66 15 12 C9.39 12 3.78 12 -2 12 C-1.34 8.04 -0.68 4.08 0 0 Z " fill="#C13D3B" transform="translate(240,128)"/>
<path d="M0 0 C0.33 0.99 0.66 1.98 1 3 C-3.78567949 7.94520214 -3.78567949 7.94520214 -7.1640625 8.09765625 C-8.38222656 8.08025391 -8.38222656 8.08025391 -9.625 8.0625 C-10.85089844 8.04896484 -10.85089844 8.04896484 -12.1015625 8.03515625 C-13.04128906 8.01775391 -13.04128906 8.01775391 -14 8 C-11.98261511 6.98678427 -9.96253157 5.98190204 -7.9296875 5 C-7.25164062 4.67 -6.57359375 4.34 -5.875 4 C-5.19179687 3.67 -4.50859375 3.34 -3.8046875 3 C-1.83081935 2.01467392 -1.83081935 2.01467392 0 0 Z " fill="#F8D5CF" transform="translate(152,135)"/>
<path d="M0 0 C5.94 2.31 11.88 4.62 18 7 C14.13209997 7.96697501 12.91837998 7.979595 9.25 7.0625 C8.45078125 6.86785156 7.6515625 6.67320313 6.828125 6.47265625 C5.92320313 6.23869141 5.92320313 6.23869141 5 6 C5 5.34 5 4.68 5 4 C3.68 4 2.36 4 1 4 C0.67 2.68 0.34 1.36 0 0 Z " fill="#BE403D" transform="translate(105,105)"/>
<path d="M0 0 C0.33 0 0.66 0 1 0 C1.66 6.6 2.32 13.2 3 20 C2.34 20 1.68 20 1 20 C1 19.34 1 18.68 1 18 C0.34 18 -0.32 18 -1 18 C-0.505 9.09 -0.505 9.09 0 0 Z " fill="#C7403D" transform="translate(529,144)"/>
<path d="M0 0 C0.33 0.66 0.66 1.32 1 2 C0.29296875 3.875 0.29296875 3.875 -0.8125 6 C-1.34810547 7.051875 -1.34810547 7.051875 -1.89453125 8.125 C-3 10 -3 10 -5 12 C-5.6425235 14.06874034 -5.6425235 14.06874034 -6 16 C-6.99 16 -7.98 16 -9 16 C-7.56691865 12.04093183 -5.66858051 8.71281819 -3.375 5.1875 C-2.74335938 4.21167969 -2.11171875 3.23585937 -1.4609375 2.23046875 C-0.73777344 1.12638672 -0.73777344 1.12638672 0 0 Z " fill="#FCDED7" transform="translate(457,128)"/>
<path d="M0 0 C0.99 0 1.98 0 3 0 C2.01 5.28 1.02 10.56 0 16 C-0.33 16 -0.66 16 -1 16 C-1.02701408 13.89590361 -1.04640223 11.79170822 -1.0625 9.6875 C-1.07410156 8.51574219 -1.08570313 7.34398438 -1.09765625 6.13671875 C-1 3 -1 3 0 0 Z " fill="#FCE1D8" transform="translate(346,112)"/>
<path d="M0 0 C0.99 0 1.98 0 3 0 C3 1.65 3 3.3 3 5 C2.34 5 1.68 5 1 5 C0.67 7.97 0.34 10.94 0 14 C-2.12969485 10.80545772 -2.2390304 10.50853075 -1.6875 7 C-1.58824219 6.319375 -1.48898437 5.63875 -1.38671875 4.9375 C-1 3 -1 3 0 0 Z " fill="#C93836" transform="translate(295,140)"/>
<path d="M0 0 C0.33 0 0.66 0 1 0 C1.02697137 2.60423592 1.04682489 5.20819244 1.0625 7.8125 C1.07087891 8.55048828 1.07925781 9.28847656 1.08789062 10.04882812 C1.10259828 13.29922068 1.03531702 15.89404895 0 19 C0.66 19.33 1.32 19.66 2 20 C0.68 20 -0.64 20 -2 20 C-1.85834107 17.60385425 -1.71181159 15.20817103 -1.5625 12.8125 C-1.52318359 12.13896484 -1.48386719 11.46542969 -1.44335938 10.77148438 C-1.21072435 7.10300898 -0.82792989 3.58305794 0 0 Z " fill="#CD3A38" transform="translate(252,71)"/>
<path d="M0 0 C0.66 0 1.32 0 2 0 C0.57250019 3.79049707 -1.16236542 7.27122456 -3.125 10.8125 C-3.93324219 12.27623047 -3.93324219 12.27623047 -4.7578125 13.76953125 C-5.37269531 14.87361328 -5.37269531 14.87361328 -6 16 C-7 13 -7 13 -6.328125 11.1328125 C-5.79445313 10.13894531 -5.79445313 10.13894531 -5.25 9.125 C-4.87617188 8.42632812 -4.50234375 7.72765625 -4.1171875 7.0078125 C-3.74851562 6.34523438 -3.37984375 5.68265625 -3 5 C-2.46375 4.01 -1.9275 3.02 -1.375 2 C-0.92125 1.34 -0.4675 0.68 0 0 Z " fill="#FDE3DF" transform="translate(510,84)"/>
<path d="M0 0 C0.7109375 1.609375 0.7109375 1.609375 1 4 C-0.3984375 7.015625 -0.3984375 7.015625 -2.375 10.25 C-3.02210938 11.32765625 -3.66921875 12.4053125 -4.3359375 13.515625 C-4.88507813 14.33546875 -5.43421875 15.1553125 -6 16 C-6.33 16 -6.66 16 -7 16 C-6.6875 12.625 -6.6875 12.625 -6 9 C-5.01 8.34 -4.02 7.68 -3 7 C-2.27617533 4.94074861 -2.27617533 4.94074861 -2 3 C-1.34 3 -0.68 3 0 3 C0 2.01 0 1.02 0 0 Z " fill="#C93B37" transform="translate(503,48)"/>
<path d="M0 0 C5.12615008 4.66395622 5.3098314 11.44339827 6 18 C4 15 4 15 3.5 12.875 C3.335 12.25625 3.17 11.6375 3 11 C2.34 10.67 1.68 10.34 1 10 C0.5859375 7.71484375 0.5859375 7.71484375 0.375 4.9375 C0.30023437 4.01839844 0.22546875 3.09929687 0.1484375 2.15234375 C0.09945312 1.44207031 0.05046875 0.73179688 0 0 Z " fill="#CB332D" transform="translate(561,118)"/>
<path d="M0 0 C0.33 0 0.66 0 1 0 C0.54240047 6.5508985 -0.2100144 12.6753842 -2 19 C-2.33 19 -2.66 19 -3 19 C-2.88573491 16.58239124 -2.75900339 14.16652782 -2.625 11.75 C-2.5940625 11.06808594 -2.563125 10.38617188 -2.53125 9.68359375 C-2.31740626 6.01260962 -1.98922945 3.13748384 0 0 Z " fill="#FAD7CD" transform="translate(629,85)"/>
<path d="M0 0 C0.33 0 0.66 0 1 0 C0.27637073 6.39205856 -0.80343362 12.68027076 -2 19 C-2.33 19 -2.66 19 -3 19 C-3.31461385 11.90370975 -3.44572039 6.31715405 0 0 Z " fill="#CA4845" transform="translate(412,74)"/>
<path d="M0 0 C3 2 3 2 3.73046875 4.390625 C5.26929052 14.01812532 5.26929052 14.01812532 5 19 C2.82539828 15.73809743 2.22352091 13.30548772 1.375 9.5 C0.98441406 7.78296875 0.98441406 7.78296875 0.5859375 6.03125 C0 3 0 3 0 0 Z " fill="#C5423F" transform="translate(386,72)"/>
<path d="M0 0 C0.99 0 1.98 0 3 0 C2.01 5.28 1.02 10.56 0 16 C-0.33 16 -0.66 16 -1 16 C-2.49697302 10.31150252 -1.3348044 5.58190932 0 0 Z " fill="#FDDED5" transform="translate(615,144)"/>
<path d="M0 0 C0.66 0 1.32 0 2 0 C3.50156874 3.00313748 3.09281204 5.79067522 3.0625 9.125 C3.05347656 10.40632813 3.04445313 11.68765625 3.03515625 13.0078125 C3.02355469 13.99523437 3.01195312 14.98265625 3 16 C2.67 16 2.34 16 2 16 C1.66104344 14.27192682 1.32908475 12.54248026 1 10.8125 C0.814375 9.84957031 0.62875 8.88664062 0.4375 7.89453125 C0.03122388 5.2065794 -0.07933572 2.71228981 0 0 Z " fill="#CA3E3B" transform="translate(552,69)"/>
<path d="M0 0 C0.33 0.99 0.66 1.98 1 3 C-0.82188812 6.51812879 -2.80450318 9.70675477 -5 13 C-5.66 13 -6.32 13 -7 13 C-5.35821735 8.22390502 -2.73453298 4.20617096 0 0 Z " fill="#FDDFDA" transform="translate(471,105)"/>
<path d="M0 0 C4.74996912 0.70369913 7.70531276 3.70531276 11 7 C8.69 6.67 6.38 6.34 4 6 C4 5.34 4 4.68 4 4 C2.68 3.67 1.36 3.34 0 3 C0 2.01 0 1.02 0 0 Z " fill="#C43934" transform="translate(89,154)"/>
<path d="M0 0 C0.33 0 0.66 0 1 0 C0.25 6.625 0.25 6.625 -2 10 C-2.99 10 -3.98 10 -5 10 C-3.66654496 6.40992874 -2.1056769 3.20429093 0 0 Z " fill="#FCE5DA" transform="translate(463,118)"/>
<path d="M0 0 C2.375 0.1875 2.375 0.1875 5 1 C6.76241771 3.88395625 7.07239607 5.45702944 6.625 8.8125 C6.41875 9.534375 6.2125 10.25625 6 11 C6.66 11.33 7.32 11.66 8 12 C7.01 12 6.02 12 5 12 C4.9175 10.948125 4.835 9.89625 4.75 8.8125 C3.94679238 4.72952791 2.80665291 2.9877273 0 0 Z " fill="#FCE3E1" transform="translate(159,68)"/>
<path d="M0 0 C-1.74294678 0.86846831 -3.49468663 1.71930627 -5.25 2.5625 C-6.22453125 3.03816406 -7.1990625 3.51382813 -8.203125 4.00390625 C-11.09856297 5.03510273 -12.19966161 5.11346788 -15 4 C-14.01 3.67 -13.02 3.34 -12 3 C-11.67 2.34 -11.34 1.68 -11 1 C-6.894382 -0.47182532 -4.17395843 -1.29917911 0 0 Z " fill="#C23832" transform="translate(128,48)"/>
<path d="M0 0 C0.66 0.66 1.32 1.32 2 2 C1.6875 5.25 1.6875 5.25 1 9 C0.814375 10.134375 0.62875 11.26875 0.4375 12.4375 C0.293125 13.283125 0.14875 14.12875 0 15 C-0.33 15 -0.66 15 -1 15 C-1.02703381 13.06257659 -1.04641125 11.12504521 -1.0625 9.1875 C-1.07410156 8.10855469 -1.08570313 7.02960938 -1.09765625 5.91796875 C-1 3 -1 3 0 0 Z " fill="#FDEADD" transform="translate(312,146)"/>
<path d="M0 0 C1.77049689 -0.05410687 3.54146849 -0.09284119 5.3125 -0.125 C6.29863281 -0.14820312 7.28476563 -0.17140625 8.30078125 -0.1953125 C11 0 11 0 14 2 C14 2.66 14 3.32 14 4 C9.38 3.01 4.76 2.02 0 1 C0 0.67 0 0.34 0 0 Z " fill="#FBDBD6" transform="translate(134,115)"/>
<path d="M0 0 C2.10827055 3.16240582 2.33817465 4.50657469 2.625 8.1875 C2.69976562 9.08855469 2.77453125 9.98960938 2.8515625 10.91796875 C2.90054687 11.60503906 2.94953125 12.29210937 3 13 C2.01 12.34 1.02 11.68 0 11 C-0.29296875 8.3984375 -0.29296875 8.3984375 -0.1875 5.375 C-0.16042969 4.37210937 -0.13335937 3.36921875 -0.10546875 2.3359375 C-0.07066406 1.56507812 -0.03585937 0.79421875 0 0 Z " fill="#C1453E" transform="translate(362,95)"/>
<path d="M0 0 C0.33 0 0.66 0 1 0 C1 4.29 1 8.58 1 13 C0.34 13 -0.32 13 -1 13 C-1.33 13.66 -1.66 14.32 -2 15 C-1.03644647 4.44191344 -1.03644647 4.44191344 0 0 Z " fill="#C7413D" transform="translate(638,48)"/>
<path d="M0 0 C-4.10457614 2.98514628 -6.97745369 3.2954439 -12 3 C-11.34 2.67 -10.68 2.34 -10 2 C-10 1.34 -10 0.68 -10 0 C-3.375 -1.125 -3.375 -1.125 0 0 Z " fill="#C6322C" transform="translate(150,138)"/>
<path d="M0 0 C0.66 0 1.32 0 2 0 C2.36923077 7.38461538 2.36923077 7.38461538 0.5 10.5 C0.005 10.995 -0.49 11.49 -1 12 C-1.14285714 3.42857143 -1.14285714 3.42857143 0 0 Z " fill="#C6302B" transform="translate(323,80)"/>
<path d="M0 0 C0.66 0.33 1.32 0.66 2 1 C1.16855469 1.70576172 1.16855469 1.70576172 0.3203125 2.42578125 C-0.76636719 3.35970703 -0.76636719 3.35970703 -1.875 4.3125 C-2.59429687 4.92738281 -3.31359375 5.54226562 -4.0546875 6.17578125 C-6.19179331 8.0412324 -6.19179331 8.0412324 -8 11 C-8.99 10.67 -9.98 10.34 -11 10 C-3.70159453 2.51708428 -3.70159453 2.51708428 0 0 Z " fill="#FDDFD5" transform="translate(117,52)"/>
<path d="M0 0 C4.95 0.99 9.9 1.98 15 3 C11 5 11 5 7 5 C7 4.34 7 3.68 7 3 C4.69 2.67 2.38 2.34 0 2 C0 1.34 0 0.68 0 0 Z " fill="#C54A46" transform="translate(101,161)"/>
<path d="M0 0 C0.33 0 0.66 0 1 0 C1.33 1.98 1.66 3.96 2 6 C-0.475 7.485 -0.475 7.485 -3 9 C-3.33 8.34 -3.66 7.68 -4 7 C-3.22265625 5.2734375 -3.22265625 5.2734375 -2.0625 3.375 C-1.381875 2.26125 -0.70125 1.1475 0 0 Z " fill="#C73A35" transform="translate(473,154)"/>
<path d="M0 0 C0.33 0 0.66 0 1 0 C1 2.64 1 5.28 1 8 C0.34 8 -0.32 8 -1 8 C-1.33 9.32 -1.66 10.64 -2 12 C-2.66 12 -3.32 12 -4 12 C-2.66666667 8 -1.33333333 4 0 0 Z " fill="#CE4D4A" transform="translate(188,131)"/>
<path d="M0 0 C2.31 0 4.62 0 7 0 C6.67 1.32 6.34 2.64 6 4 C6.66 4 7.32 4 8 4 C8.33 5.32 8.66 6.64 9 8 C8.34 7.67 7.68 7.34 7 7 C7 6.34 7 5.68 7 5 C6.401875 4.731875 5.80375 4.46375 5.1875 4.1875 C3.02775192 3.01506533 1.64209744 1.80630718 0 0 Z " fill="#C94642" transform="translate(185,49)"/>
<path d="M0 0 C0.99 0 1.98 0 3 0 C3.125 2.375 3.125 2.375 3 5 C1 7 1 7 -2.125 7.125 C-3.548125 7.063125 -3.548125 7.063125 -5 7 C-5 6.67 -5 6.34 -5 6 C-3.35 6 -1.7 6 0 6 C0 4.02 0 2.04 0 0 Z " fill="#CA2C26" transform="translate(69,45)"/>
<path d="M0 0 C0.33 0 0.66 0 1 0 C1.29296875 6.0546875 1.29296875 6.0546875 1 8 C-2.08888522 10.05925681 -2.70935927 10.2390374 -6.1875 10.125 C-8.0746875 10.063125 -8.0746875 10.063125 -10 10 C-10 9.67 -10 9.34 -10 9 C-8.329375 8.814375 -8.329375 8.814375 -6.625 8.625 C-2.96896323 8.3534187 -2.96896323 8.3534187 -1 6 C-0.60235737 4.01178687 -0.26224651 2.01055661 0 0 Z " fill="#C72E2A" transform="translate(426,155)"/>
<path d="M0 0 C1.32 0.33 2.64 0.66 4 1 C1.525 5.455 1.525 5.455 -1 10 C-2.10191901 5.59232396 -1.58706842 4.1077065 0 0 Z " fill="#FDE0DC" transform="translate(475,144)"/>
<path d="M0 0 C0.99 0.33 1.98 0.66 3 1 C2.19185349 2.33597652 1.37836819 3.668725 0.5625 5 C0.11003906 5.7425 -0.34242188 6.485 -0.80859375 7.25 C-1.20175781 7.8275 -1.59492188 8.405 -2 9 C-2.33 9 -2.66 9 -3 9 C-3 7.35 -3 5.7 -3 4 C-2.34 4 -1.68 4 -1 4 C-0.67 2.68 -0.34 1.36 0 0 Z " fill="#C63C39" transform="translate(454,128)"/>
<path d="M0 0 C2.82059747 1.41029874 2.98101714 3.07891581 4 6 C4.2475 6.70125 4.495 7.4025 4.75 8.125 C5 10 5 10 3 13 C2.01 8.71 1.02 4.42 0 0 Z " fill="#B9585D" transform="translate(397,120)"/>
<path d="M0 0 C0.66 0 1.32 0 2 0 C2.99 2.97 3.98 5.94 5 9 C4.01 9 3.02 9 2 9 C2 8.01 2 7.02 2 6 C1.34 6 0.68 6 0 6 C0 4.02 0 2.04 0 0 Z " fill="#C74743" transform="translate(96,91)"/>
<path d="M0 0 C2.02350324 3.03525486 2.32124018 4.19426202 2.625 7.6875 C2.69976562 8.49574219 2.77453125 9.30398437 2.8515625 10.13671875 C2.90054687 10.75160156 2.94953125 11.36648437 3 12 C2.34 12 1.68 12 1 12 C0.03929566 9.11788698 -0.10581883 7.30149956 -0.0625 4.3125 C-0.05347656 3.50425781 -0.04445313 2.69601563 -0.03515625 1.86328125 C-0.02355469 1.24839844 -0.01195312 0.63351563 0 0 Z " fill="#CC423D" transform="translate(359,82)"/>
<path d="M0 0 C0.33 0 0.66 0 1 0 C1.02708567 1.60407328 1.04643483 3.2082785 1.0625 4.8125 C1.07410156 5.70582031 1.08570313 6.59914063 1.09765625 7.51953125 C1 10 1 10 0 13 C-0.66 13 -1.32 13 -2 13 C-1.48041715 8.62065881 -0.94324258 4.31196609 0 0 Z " fill="#FACEC9" transform="translate(599,77)"/>
<path d="M0 0 C1.51754003 2.41021064 2.02316906 3.68335622 1.8125 6.5625 C0.95027053 9.14918841 0.07804617 10.28335317 -2 12 C-1 3.42857143 -1 3.42857143 0 0 Z " fill="#B34240" transform="translate(357,74)"/>
<path d="M0 0 C0.33 1.32 0.66 2.64 1 4 C1.66 4 2.32 4 3 4 C3.33 5.32 3.66 6.64 4 8 C4.66 8 5.32 8 6 8 C6 8.99 6 9.98 6 11 C4.68 10.67 3.36 10.34 2 10 C1.855625 9.360625 1.71125 8.72125 1.5625 8.0625 C1.18992819 6.02454854 1.18992819 6.02454854 0 5 C-0.04063832 3.33382885 -0.042721 1.66611905 0 0 Z " fill="#C83333" transform="translate(134,76)"/>
<path d="M0 0 C0.66 0 1.32 0 2 0 C0.55049545 3.7910119 -1.15172566 7.3874638 -3 11 C-3.75 9.4375 -3.75 9.4375 -4 7 C-2.86915563 4.49713591 -1.47860484 2.32992278 0 0 Z " fill="#FDDDD8" transform="translate(516,73)"/>
<path d="M0 0 C0.99 0 1.98 0 3 0 C1.84414715 3.91211733 0.64465038 6.8745041 -2 10 C-2 7.69 -2 5.38 -2 3 C-1.01 3 -0.02 3 1 3 C0.67 2.01 0.34 1.02 0 0 Z " fill="#CC3C3A" transform="translate(101,64)"/>
<path d="M0 0 C0 0.66 0 1.32 0 2 C-0.66 2 -1.32 2 -2 2 C-2 2.99 -2 3.98 -2 5 C-2.66 5 -3.32 5 -4 5 C-4 6.98 -4 8.96 -4 11 C-4.33 11 -4.66 11 -5 11 C-5.33 8.36 -5.66 5.72 -6 3 C-2.25 0 -2.25 0 0 0 Z " fill="#C72F25" transform="translate(608,43)"/>
<path d="M0 0 C0.33 0 0.66 0 1 0 C2.05699482 5.28497409 2.05699482 5.28497409 2 8 C0.0625 10.5 0.0625 10.5 -2 12 C-1.85831863 10.56208484 -1.71148957 9.1246763 -1.5625 7.6875 C-1.48128906 6.88699219 -1.40007812 6.08648437 -1.31640625 5.26171875 C-1 3 -1 3 0 0 Z " fill="#F8D2CF" transform="translate(204,144)"/>
<path d="M0 0 C1.32 0 2.64 0 4 0 C3.67 3.63 3.34 7.26 3 11 C2.67 11 2.34 11 2 11 C1.93941406 10.37351563 1.87882812 9.74703125 1.81640625 9.1015625 C1.73261719 8.28429687 1.64882813 7.46703125 1.5625 6.625 C1.48128906 5.81289062 1.40007812 5.00078125 1.31640625 4.1640625 C1.10909886 1.95727195 1.10909886 1.95727195 0 0 Z " fill="#FEE6DD" transform="translate(290,141)"/>
<path d="M0 0 C2.2344598 4.03292745 2.54496743 7.44967434 3 12 C2.34 12 1.68 12 1 12 C0.03929566 9.11788698 -0.10581883 7.30149956 -0.0625 4.3125 C-0.05347656 3.50425781 -0.04445313 2.69601563 -0.03515625 1.86328125 C-0.02355469 1.24839844 -0.01195312 0.63351563 0 0 Z " fill="#CA544F" transform="translate(370,128)"/>
<path d="M0 0 C2.1519437 3.22791555 2.20086443 4.28400809 2 8 C1.34 8 0.68 8 0 8 C-3 3.61538462 -3 3.61538462 -3 1 C-2.01 0.67 -1.02 0.34 0 0 Z " fill="#C8352E" transform="translate(189,104)"/>
<path d="M0 0 C1.32 0 2.64 0 4 0 C4 0.99 4 1.98 4 3 C-0.29 3 -4.58 3 -9 3 C-9 2.67 -9 2.34 -9 2 C-6.03 2 -3.06 2 0 2 C0 1.34 0 0.68 0 0 Z " fill="#FFDFD6" transform="translate(65,103)"/>
<path d="M0 0 C0.87324262 2.44507934 1.10151327 3.67700322 0.3125 6.1875 C-1 8 -1 8 -3.125 8.75 C-4.053125 8.87375 -4.053125 8.87375 -5 9 C-4.67 7.68 -4.34 6.36 -4 5 C-3.01 5 -2.02 5 -1 5 C-0.67 3.35 -0.34 1.7 0 0 Z " fill="#CF322B" transform="translate(506,97)"/>
<path d="M0 0 C2 1 2 1 4 3 C4.36933645 5.75372909 4.18336678 8.20365661 4 11 C3.67 11 3.34 11 3 11 C2.87625 10.195625 2.7525 9.39125 2.625 8.5625 C2.315625 7.2940625 2.315625 7.2940625 2 6 C1.34 5.67 0.68 5.34 0 5 C0 3.35 0 1.7 0 0 Z " fill="#BC3636" transform="translate(159,69)"/>
<path d="M0 0 C0.99 0 1.98 0 3 0 C1.75023244 3.65316671 1.32901247 4.78065836 -2 7 C-2 3.89448334 -1.4606285 2.64738916 0 0 Z " fill="#FDE7E0" transform="translate(182,139)"/>
<path d="M0 0 C0.99 0.33 1.98 0.66 3 1 C1.68 3.64 0.36 6.28 -1 9 C-1.33 9 -1.66 9 -2 9 C-2.25 3.375 -2.25 3.375 0 0 Z " fill="#FBDBD8" transform="translate(499,103)"/>
<path d="M0 0 C2.67927341 4.01891012 2.15601248 6.24161923 2 11 C1.67 11 1.34 11 1 11 C1 9.02 1 7.04 1 5 C0.34 5 -0.32 5 -1 5 C-1 5.66 -1 6.32 -1 7 C-1.66 6.67 -2.32 6.34 -3 6 C-2.01 4.02 -1.02 2.04 0 0 Z " fill="#BE4E4D" transform="translate(520,69)"/>
<path d="M0 0 C0.33 0 0.66 0 1 0 C1.36625971 4.51720311 1.36625971 4.51720311 -0.375 6.8125 C-2 8 -2 8 -4 8 C-2.87548273 5.0280615 -1.77706209 2.66559313 0 0 Z " fill="#FCE5DD" transform="translate(506,48)"/>
<path d="M0 0 C4.06815373 1.84916079 7.0094833 3.66442368 10 7 C5.61537866 6.49890042 3.1999003 5.01704885 0 2 C0 1.34 0 0.68 0 0 Z " fill="#FCDDD5" transform="translate(182,48)"/>
<path d="M0 0 C0.33 0 0.66 0 1 0 C1.08131463 1.43655854 1.13933559 2.8744483 1.1875 4.3125 C1.23970703 5.51326172 1.23970703 5.51326172 1.29296875 6.73828125 C0.93801608 9.47851584 0.10633718 10.29171079 -2 12 C-1 3.42857143 -1 3.42857143 0 0 Z " fill="#D35452" transform="translate(626,104)"/>
<path d="M0 0 C1.4606285 2.64738916 2 3.89448334 2 7 C-0.97 7 -3.94 7 -7 7 C-7 6.67 -7 6.34 -7 6 C-5.02 5.67 -3.04 5.34 -1 5 C-0.67 3.35 -0.34 1.7 0 0 Z " fill="#FCC6C0" transform="translate(567,156)"/>
<path d="M0 0 C0.33 0 0.66 0 1 0 C1 1.65 1 3.3 1 5 C0.34 5 -0.32 5 -1 5 C-1.33 6.32 -1.66 7.64 -2 9 C-2.66 9 -3.32 9 -4 9 C-2.94124926 5.59687262 -1.99097846 2.98646769 0 0 Z " fill="#C4413E" transform="translate(478,145)"/>
<path d="M0 0 C0.33 0 0.66 0 1 0 C1 2.97 1 5.94 1 9 C0.01 9.495 0.01 9.495 -1 10 C-2.46726798 6.18510326 -1.43336419 3.70988378 0 0 Z " fill="#C72C25" transform="translate(243,120)"/>
<path d="M0 0 C1 2 1 2 0.25 4.5625 C-1 7 -1 7 -4 8 C-2.87548273 5.0280615 -1.77706209 2.66559313 0 0 Z " fill="#FBD9D2" transform="translate(444,149)"/>
<path d="M0 0 C3.71888239 0.50712033 6.73454239 1.11608215 10 3 C8.72125 3.061875 7.4425 3.12375 6.125 3.1875 C5.40570313 3.22230469 4.68640625 3.25710937 3.9453125 3.29296875 C3.30335938 3.19628906 2.66140625 3.09960938 2 3 C1.34 2.01 0.68 1.02 0 0 Z " fill="#D12A24" transform="translate(134,117)"/>
<path d="M0 0 C0.66 0 1.32 0 2 0 C2 2.64 2 5.28 2 8 C1.34 8 0.68 8 0 8 C-0.38063221 5.6739143 -0.71269945 3.33944736 -1 1 C-0.67 0.67 -0.34 0.34 0 0 Z " fill="#CF2F2E" transform="translate(213,88)"/>
<path d="M0 0 C0.33 0 0.66 0 1 0 C1.66 2.97 2.32 5.94 3 9 C1.68 8.67 0.36 8.34 -1 8 C-0.67 5.36 -0.34 2.72 0 0 Z " fill="#FBD1CE" transform="translate(132,76)"/>
</svg>
